STARTFONT 2.1
FONT -HP-Dotum-Bold-R-Normal--32-320-75-75-C-160-KSC5636.1989-0
SIZE 32 75 75
FONTBOUNDINGBOX 16 32 0 -2

STARTPROPERTIES 23
FONTNAME_REGISTRY ""
FOUNDRY "HP"
FAMILY_NAME "Dotum"
WEIGHT_NAME "Bold"
SLANT "R"
SETWIDTH_NAME "Normal"
ADD_STYLE_NAME ""
PIXEL_SIZE 32
POINT_SIZE 320
RESOLUTION_X 75
RESOLUTION_Y 75
SPACING "C"
AVERAGE_WIDTH 160
CHARSET_REGISTRY "KSC5636.1989"
CHARSET_ENCODING "0"
COPYRIGHT "Copyright (c) 1994 Samsung Hewlett-Packard Company."
WEIGHT 160
X_HEIGHT 30
QUAD_WIDTH 16
_HP_ASXVERSION "@(#) ASX 3.00 $Revision: 13.9 $ dotB32a"
DEFAULT_CHAR 32
FONT_DESCENT 2
FONT_ASCENT 30
ENDPROPERTIES

CHARS 256

STARTCHAR CODE000
ENCODING 0
SWIDTH 451 0
DWIDTH 16 0
BBX 16 32 0 -2
BITMAP
0000
0000
0000
0000
0000
0000
0000
0000
0000
0000
0000
0000
0000
0000
0000
0000
0000
0000
0000
0000
0000
0000
0000
0000
0000
0000
0000
0000
0000
0000
0000
0000
ENDCHAR

STARTCHAR CODE001
ENCODING 1
SWIDTH 451 0
DWIDTH 16 0
BBX 16 32 0 -2
BITMAP
0000
0000
03C0
0FF0
1FF8
3E7C
781E
700F
EE37
DF7B
DF7B
DF7B
CE33
C003
C003
D81B
D81B
DC3B
DFF3
EFE7
73CF
780F
3C3E
1FFC
0FF8
03E0
0000
0000
0000
0000
0000
0000
ENDCHAR

STARTCHAR CODE002
ENCODING 2
SWIDTH 451 0
DWIDTH 16 0
BBX 16 32 0 -2
BITMAP
0000
0000
03E0
0FF8
1FFC
3FFC
3FFE
7FFE
7FFF
7BEF
F1C7
FBEF
FFFF
FFFF
FFFF
FFFF
FFFF
EFF7
6FF7
77EF
799E
3C3E
3FFC
1FFC
0FF8
03E0
0000
0000
0000
0000
0000
0000
ENDCHAR

STARTCHAR CODE003
ENCODING 3
SWIDTH 451 0
DWIDTH 16 0
BBX 16 32 0 -2
BITMAP
0000
0E38
1F7C
3F7E
3FFE
7FFF
7FFF
7FFF
7FFF
7FFF
7FFF
7FFF
3FFE
3FFE
3FFE
1FFC
1FFC
1FFC
0FF8
0FF8
07F0
07F0
07F0
03E0
03E0
01C0
01C0
0080
0000
0000
0000
0000
ENDCHAR

STARTCHAR CODE004
ENCODING 4
SWIDTH 451 0
DWIDTH 16 0
BBX 16 32 0 -2
BITMAP
0080
0080
01C0
01C0
03E0
03E0
07F0
07F0
0FF8
0FF8
1FFC
1FFC
3FFE
3FFE
7FFF
7FFF
3FFE
3FFE
1FFC
1FFC
0FF8
0FF8
07F0
07F0
03E0
03E0
01C0
01C0
0080
0080
0000
0000
ENDCHAR

STARTCHAR CODE005
ENCODING 5
SWIDTH 451 0
DWIDTH 16 0
BBX 16 32 0 -2
BITMAP
0000
01C0
07F0
07F0
0FF8
0FF8
0FF8
0FF8
0FF8
0FF8
07F0
37EC
7BDE
7FFE
FFFF
FFFF
FFFF
FFFF
FFFF
FFFF
7FFE
7DBE
3D9C
0180
0180
03C0
0FF0
0FF0
0FF0
0000
0000
0000
ENDCHAR

STARTCHAR CODE006
ENCODING 6
SWIDTH 451 0
DWIDTH 16 0
BBX 16 32 0 -2
BITMAP
0000
0180
0180
03C0
03C0
07E0
07E0
0FF0
0FF0
1FF8
1FF8
3FFC
3FFC
7FFE
7FFE
7FFE
FFFF
FFFF
FFFF
FFFF
FFFF
FFFF
7DBE
399C
0180
0180
03C0
1FF8
1FF8
1FF8
0000
0000
ENDCHAR

STARTCHAR CODE007
ENCODING 7
SWIDTH 451 0
DWIDTH 16 0
BBX 16 32 0 -2
BITMAP
0000
0000
0000
0000
0000
0000
0000
0000
01E0
07F8
0FFC
1FFE
1FFE
3FFF
3FFF
3FFF
3FFF
1FFE
1FFE
0FFC
07F8
01E0
0000
0000
0000
0000
0000
0000
0000
0000
0000
0000
ENDCHAR

STARTCHAR CODE008
ENCODING 8
SWIDTH 451 0
DWIDTH 16 0
BBX 16 32 0 -2
BITMAP
0000
0000
0000
FFFF
FFFF
FFFF
FFFF
FFFF
FFFF
FFFF
FE3F
F80F
F007
F007
E003
E003
E003
F007
F007
F80F
FE3F
FFFF
FFFF
FFFF
FFFF
FFFF
FFFF
FFFF
0000
0000
0000
0000
ENDCHAR

STARTCHAR CODE009
ENCODING 9
SWIDTH 451 0
DWIDTH 16 0
BBX 16 32 0 -2
BITMAP
0000
0000
0000
0000
0000
0000
0000
0000
0000
0000
03F0
0FFC
0FFC
1F3E
1E1E
1C0E
1C0E
1E1E
1F3E
0FFC
0FFC
03F0
0000
0000
0000
0000
0000
0000
0000
0000
0000
0000
ENDCHAR

STARTCHAR CODE010
ENCODING 10
SWIDTH 451 0
DWIDTH 16 0
BBX 16 32 0 -2
BITMAP
0000
0000
0000
FFFF
FFFF
FFFF
FFFF
FFFF
FFFF
FFFF
FE7F
F81F
F18F
F3CF
E7E7
E7E7
E7E7
F3CF
F18F
F81F
FE7F
FFFF
FFFF
FFFF
FFFF
FFFF
FFFF
FFFF
0000
0000
0000
0000
ENDCHAR

STARTCHAR CODE011
ENCODING 11
SWIDTH 451 0
DWIDTH 16 0
BBX 16 32 0 -2
BITMAP
0000
0000
0000
0000
007F
007F
007F
000F
001F
001F
003B
0033
0073
00F0
0FE0
3FE0
7FF0
7DF0
F078
F078
E038
F078
F078
7DF0
7FF0
3FE0
0FC0
0000
0000
0000
0000
0000
ENDCHAR

STARTCHAR CODE012
ENCODING 12
SWIDTH 451 0
DWIDTH 16 0
BBX 16 32 0 -2
BITMAP
0000
07F0
1FFC
3FFE
3E3E
780F
780F
7007
7007
780F
780F
3E3E
3FFE
1FFC
07F0
01C0
01C0
7FFF
7FFF
7FFF
01C0
01C0
01C0
01C0
01C0
01C0
01C0
01C0
01C0
01C0
0000
0000
ENDCHAR

STARTCHAR CODE013
ENCODING 13
SWIDTH 451 0
DWIDTH 16 0
BBX 16 32 0 -2
BITMAP
0000
0600
0700
0780
07C0
07E0
07F0
07F8
07FC
077E
073F
071F
070F
0707
0703
0703
0707
0707
070F
070E
071C
0738
0730
1F00
3F00
7F00
7E00
7E00
3C00
0000
0000
0000
ENDCHAR

STARTCHAR CODE014
ENCODING 14
SWIDTH 451 0
DWIDTH 16 0
BBX 16 32 0 -2
BITMAP
0000
0000
0007
003F
01FF
0FFF
0FF3
0F8F
0E3F
0EFF
0FFB
0FF3
0F83
0E03
0E03
0E03
0E03
0E03
0E03
0E0F
0E1F
0E3F
3E3F
7E3F
FE3E
FC1C
FC00
F800
7000
0000
0000
0000
ENDCHAR

STARTCHAR CODE015
ENCODING 15
SWIDTH 451 0
DWIDTH 16 0
BBX 16 32 0 -2
BITMAP
0000
0000
0000
0000
01C0
01C0
01C0
C1C1
E7F3
FFFF
FFFF
7E3F
380E
780E
7007
F007
F007
F007
780E
780E
FE3F
FFFF
DFFB
C7F1
01C0
01C0
01C0
01C0
0000
0000
0000
0000
ENDCHAR

STARTCHAR CODE016
ENCODING 16
SWIDTH 451 0
DWIDTH 16 0
BBX 16 32 0 -2
BITMAP
8000
C000
E000
F000
F800
FC00
FE00
FF00
FF80
FFC0
FFE0
FFF0
FFF8
FFFC
FFFE
FFFF
FFFE
FFFC
FFF8
FFF0
FFE0
FFC0
FF80
FF00
FE00
FC00
F800
F000
E000
C000
8000
0000
ENDCHAR

STARTCHAR CODE017
ENCODING 17
SWIDTH 451 0
DWIDTH 16 0
BBX 16 32 0 -2
BITMAP
0000
0001
0003
0007
000F
001F
003F
007F
00FF
01FF
03FF
07FF
0FFF
1FFF
3FFF
7FFF
3FFF
1FFF
0FFF
07FF
03FF
01FF
00FF
007F
003F
001F
000F
0007
0003
0001
0000
0000
ENDCHAR

STARTCHAR CODE018
ENCODING 18
SWIDTH 451 0
DWIDTH 16 0
BBX 16 32 0 -2
BITMAP
0000
01C0
03E0
07F0
0FF8
1FFC
3DDE
31C6
01C0
01C0
01C0
01C0
01C0
01C0
01C0
01C0
01C0
01C0
01C0
01C0
01C0
01C0
01C0
31C6
3DDE
1FFC
0FF8
07F0
03E0
01C0
0000
0000
ENDCHAR

STARTCHAR CODE019
ENCODING 19
SWIDTH 451 0
DWIDTH 16 0
BBX 16 32 0 -2
BITMAP
0000
0000
0E38
0E38
0E38
0E38
0E38
0E38
0E38
0E38
0E38
0E38
0E38
0E38
0E38
0E38
0E38
0E38
0E38
0E38
0000
0000
0E38
1F7C
1F7C
1F7C
0E38
0000
0000
0000
0000
0000
ENDCHAR

STARTCHAR CODE020
ENCODING 20
SWIDTH 451 0
DWIDTH 16 0
BBX 16 32 0 -2
BITMAP
0000
0FFF
3FFF
7FFF
FCE7
F0E7
F0E7
E0E7
E0E7
F0E7
F0E7
FCE7
7FE7
3FE7
0FE7
00E7
00E7
00E7
00E7
00E7
00E7
00E7
00E7
00E7
00E7
00E7
00E7
00E7
00E7
00E7
0000
0000
ENDCHAR

STARTCHAR CODE021
ENCODING 21
SWIDTH 451 0
DWIDTH 16 0
BBX 16 32 0 -2
BITMAP
0000
000E
07EE
1FFE
3FFE
7C3F
780F
7807
73C7
7FF7
3FF8
3E78
1FB8
1FF8
1BF8
1DFC
1E7E
0FFE
03DF
700F
700F
7007
780F
7E3F
3FFE
3FFC
3BF0
3800
0000
0000
0000
0000
ENDCHAR

STARTCHAR CODE022
ENCODING 22
SWIDTH 451 0
DWIDTH 16 0
BBX 16 32 0 -2
BITMAP
0000
0000
0000
0000
0000
0000
0000
0000
0000
FFFF
FFFF
FFFF
FFFF
FFFF
FFFF
FFFF
FFFF
FFFF
FFFF
FFFF
FFFF
FFFF
0000
0000
0000
0000
0000
0000
0000
0000
0000
0000
ENDCHAR

STARTCHAR CODE023
ENCODING 23
SWIDTH 451 0
DWIDTH 16 0
BBX 16 32 0 -2
BITMAP
0000
01C0
03E0
07F0
0FF8
1FFC
3DDE
31C6
01C0
01C0
01C0
01C0
01C0
01C0
01C0
01C0
01C0
01C0
01C0
01C0
01C0
19CC
1DDC
0FF8
07F0
03E0
01C0
FFFF
FFFF
FFFF
0000
0000
ENDCHAR

STARTCHAR CODE024
ENCODING 24
SWIDTH 451 0
DWIDTH 16 0
BBX 16 32 0 -2
BITMAP
0000
01C0
03E0
07F0
0FF8
1FFC
3DDE
31C6
01C0
01C0
01C0
01C0
01C0
01C0
01C0
01C0
01C0
01C0
01C0
01C0
01C0
01C0
01C0
01C0
01C0
01C0
01C0
01C0
01C0
01C0
0000
0000
ENDCHAR

STARTCHAR CODE025
ENCODING 25
SWIDTH 451 0
DWIDTH 16 0
BBX 16 32 0 -2
BITMAP
0000
01C0
01C0
01C0
01C0
01C0
01C0
01C0
01C0
01C0
01C0
01C0
01C0
01C0
01C0
01C0
01C0
01C0
01C0
01C0
01C0
01C0
01C0
31C6
3DDE
1FFC
0FF8
07F0
03E0
01C0
0000
0000
ENDCHAR

STARTCHAR CODE026
ENCODING 26
SWIDTH 451 0
DWIDTH 16 0
BBX 16 32 0 -2
BITMAP
0000
0000
0000
0000
0000
0000
0000
0000
0000
0000
0030
0038
001C
000E
7FFF
7FFF
7FFF
000E
001C
0038
0030
0000
0000
0000
0000
0000
0000
0000
0000
0000
0000
0000
ENDCHAR

STARTCHAR CODE027
ENCODING 27
SWIDTH 451 0
DWIDTH 16 0
BBX 16 32 0 -2
BITMAP
0000
0000
0000
0000
0000
0000
0000
0000
0000
0000
0600
0E00
1C00
3800
7FFF
7FFF
7FFF
3800
1C00
0E00
0600
0000
0000
0000
0000
0000
0000
0000
0000
0000
0000
0000
ENDCHAR

STARTCHAR CODE028
ENCODING 28
SWIDTH 451 0
DWIDTH 16 0
BBX 16 32 0 -2
BITMAP
0000
0000
0000
0000
0000
0000
0000
0000
7000
7000
7000
7000
7000
7000
7000
7000
7000
7000
7000
7000
7000
7FFF
7FFF
7FFF
0000
0000
0000
0000
0000
0000
0000
0000
ENDCHAR

STARTCHAR CODE029
ENCODING 29
SWIDTH 451 0
DWIDTH 16 0
BBX 16 32 0 -2
BITMAP
0000
0000
0000
0000
0000
0000
0000
0000
0000
0000
0000
0C18
1C1C
380E
7FFF
7FFF
7FFF
380E
1C1C
0C18
0000
0000
0000
0000
0000
0000
0000
0000
0000
0000
0000
0000
ENDCHAR

STARTCHAR CODE030
ENCODING 30
SWIDTH 451 0
DWIDTH 16 0
BBX 16 32 0 -2
BITMAP
0000
0000
0000
0080
0080
01C0
01C0
01C0
03E0
03E0
03E0
07F0
07F0
07F0
0FF8
0FF8
0FF8
1FFC
1FFC
1FFC
3FFE
3FFE
3FFE
7FFF
7FFF
0000
0000
0000
0000
0000
0000
0000
ENDCHAR

STARTCHAR CODE031
ENCODING 31
SWIDTH 451 0
DWIDTH 16 0
BBX 16 32 0 -2
BITMAP
0000
0000
0000
0000
0000
7FFF
7FFF
3FFE
3FFE
3FFE
1FFC
1FFC
1FFC
0FF8
0FF8
0FF8
07F0
07F0
07F0
03E0
03E0
03E0
01C0
01C0
01C0
0080
0080
0000
0000
0000
0000
0000
ENDCHAR

STARTCHAR 0x20
ENCODING 32
SWIDTH 110 0
DWIDTH 16 0
BBX 16 32 0 -2
BITMAP
0000
0000
0000
0000
0000
0000
0000
0000
0000
0000
0000
0000
0000
0000
0000
0000
0000
0000
0000
0000
0000
0000
0000
0000
0000
0000
0000
0000
0000
0000
0000
0000
ENDCHAR

STARTCHAR !
ENCODING 33
SWIDTH 110 0
DWIDTH 16 0
BBX 16 32 0 -2
BITMAP
0000
0000
0000
03C0
03C0
03C0
03C0
03C0
03C0
03C0
03C0
03C0
03C0
03C0
03C0
03C0
03C0
03C0
03C0
03C0
0000
0000
03C0
03C0
03C0
03C0
03C0
0000
0000
0000
0000
0000
ENDCHAR

STARTCHAR "
ENCODING 34
SWIDTH 110 0
DWIDTH 16 0
BBX 16 32 0 -2
BITMAP
0738
0738
0738
0738
0E70
0E70
1CE0
18C0
0000
0000
0000
0000
0000
0000
0000
0000
0000
0000
0000
0000
0000
0000
0000
0000
0000
0000
0000
0000
0000
0000
0000
0000
ENDCHAR

STARTCHAR #
ENCODING 35
SWIDTH 110 0
DWIDTH 16 0
BBX 16 32 0 -2
BITMAP
0000
0038
0038
0738
0738
0738
0738
073F
07FF
7FFF
7FF8
7F38
0738
0738
0738
0738
0738
073F
07FF
7FFF
7FF8
7F38
0738
0738
0738
0738
0738
0738
0700
0700
0000
0000
ENDCHAR

STARTCHAR $
ENCODING 36
SWIDTH 110 0
DWIDTH 16 0
BBX 16 32 0 -2
BITMAP
01C0
01C0
07F0
1FFC
1FFE
3DDE
3DCF
39CF
39C0
39C0
3DC0
1DC0
1FC0
0FE0
07F8
01FC
01BE
01CE
01CF
01C7
01C7
31C7
79C7
7DCF
3FFE
1FFE
07F8
01C0
01C0
01C0
0000
0000
ENDCHAR

STARTCHAR %
ENCODING 37
SWIDTH 110 0
DWIDTH 16 0
BBX 16 32 0 -2
BITMAP
0000
0000
0000
0000
1E0E
3F0E
371E
739C
73BC
73B8
73F8
7370
37F0
3EE0
1FE0
01C0
03FC
03BE
076E
07E7
0EE7
0EE7
1EE7
1CE7
3C6E
387E
383C
0000
0000
0000
0000
0000
ENDCHAR

STARTCHAR &
ENCODING 38
SWIDTH 110 0
DWIDTH 16 0
BBX 16 32 0 -2
BITMAP
0000
0000
03C0
0FE0
0FF0
1EF0
1C70
1C70
1CF0
1EE0
0FE0
0DC0
0F80
0707
DF07
FF87
3B87
7BCF
71CE
71EE
70FE
70DC
707C
7878
3C3F
3FFF
1FEF
0780
0000
0000
0000
0000
ENDCHAR

STARTCHAR '
ENCODING 39
SWIDTH 110 0
DWIDTH 16 0
BBX 16 32 0 -2
BITMAP
0000
01C0
03E0
03E0
03E0
01E0
00C0
03C0
0380
0000
0000
0000
0000
0000
0000
0000
0000
0000
0000
0000
0000
0000
0000
0000
0000
0000
0000
0000
0000
0000
0000
0000
ENDCHAR

STARTCHAR (
ENCODING 40
SWIDTH 110 0
DWIDTH 16 0
BBX 16 32 0 -2
BITMAP
0000
0030
0070
00F0
00E0
01E0
01C0
01C0
03C0
0380
0380
0380
0380
0380
0380
0380
0380
0380
0380
0380
0380
0380
03C0
01C0
01C0
01E0
00E0
00F0
0070
0030
0000
0000
ENDCHAR

STARTCHAR )
ENCODING 41
SWIDTH 110 0
DWIDTH 16 0
BBX 16 32 0 -2
BITMAP
0000
0600
0700
0780
0380
03C0
01C0
01C0
01E0
00E0
00E0
00E0
00E0
00E0
00E0
00E0
00E0
00E0
00E0
00E0
00E0
00E0
00E0
01E0
01C0
01C0
03C0
0380
0780
0700
0600
0000
ENDCHAR

STARTCHAR *
ENCODING 42
SWIDTH 110 0
DWIDTH 16 0
BBX 16 32 0 -2
BITMAP
0000
0000
0000
0000
0000
0000
0000
0000
0000
00C0
01E0
01E0
0FFC
1EDE
1EFE
07B8
03F0
1EBE
1EDE
0FFC
01E0
01E0
00C0
0000
0000
0000
0000
0000
0000
0000
0000
0000
ENDCHAR

STARTCHAR +
ENCODING 43
SWIDTH 110 0
DWIDTH 16 0
BBX 16 32 0 -2
BITMAP
0000
0000
0000
0000
0000
0000
0000
01C0
01C0
01C0
01C0
01C0
01C0
01C0
7FFF
7FFF
7FFF
01C0
01C0
01C0
01C0
01C0
01C0
01C0
0000
0000
0000
0000
0000
0000
0000
0000
ENDCHAR

STARTCHAR ,
ENCODING 44
SWIDTH 110 0
DWIDTH 16 0
BBX 16 32 0 -2
BITMAP
0000
0000
0000
0000
0000
0000
0000
0000
0000
0000
0000
0000
0000
0000
0000
0000
0000
0000
0000
0000
0000
01C0
03E0
03E0
03E0
01E0
00C0
03C0
0380
0000
0000
0000
ENDCHAR

STARTCHAR -
ENCODING 45
SWIDTH 110 0
DWIDTH 16 0
BBX 16 32 0 -2
BITMAP
0000
0000
0000
0000
0000
0000
0000
0000
0000
0000
0000
0000
0000
0000
7FFF
7FFF
7FFF
0000
0000
0000
0000
0000
0000
0000
0000
0000
0000
0000
0000
0000
0000
0000
ENDCHAR

STARTCHAR .
ENCODING 46
SWIDTH 110 0
DWIDTH 16 0
BBX 16 32 0 -2
BITMAP
0000
0000
0000
0000
0000
0000
0000
0000
0000
0000
0000
0000
0000
0000
0000
0000
0000
0000
0000
0000
0000
01C0
03E0
03E0
01C0
0000
0000
0000
0000
0000
0000
0000
ENDCHAR

STARTCHAR /
ENCODING 47
SWIDTH 110 0
DWIDTH 16 0
BBX 16 32 0 -2
BITMAP
0000
001C
001C
003C
0038
0038
0078
0070
0070
00F0
00E0
00E0
01E0
01C0
01C0
03C0
0380
0380
0780
0700
0700
0F00
0E00
0E00
1E00
1C00
1C00
3C00
3800
3800
0000
0000
ENDCHAR

STARTCHAR 0
ENCODING 48
SWIDTH 110 0
DWIDTH 16 0
BBX 16 32 0 -2
BITMAP
0000
0000
0000
03E0
0FF8
1FFC
1E3C
3C1E
3C1E
380E
380E
380E
380E
380E
380E
380E
380E
380E
380E
380E
380E
380E
3C1E
3C1E
1E3C
1FFC
0FF8
03E0
0000
0000
0000
0000
ENDCHAR

STARTCHAR 1
ENCODING 49
SWIDTH 110 0
DWIDTH 16 0
BBX 16 32 0 -2
BITMAP
0000
0000
0000
0380
0F80
0F80
0F80
0380
0380
0380
0380
0380
0380
0380
0380
0380
0380
0380
0380
0380
0380
0380
0380
0380
0380
0380
0380
0000
0000
0000
0000
0000
ENDCHAR

STARTCHAR 2
ENCODING 50
SWIDTH 110 0
DWIDTH 16 0
BBX 16 32 0 -2
BITMAP
0000
0000
0000
07E0
1FF8
1FF8
3C3C
381C
381C
381C
381C
003C
003C
0078
0078
00F0
01F0
03E0
07C0
0F80
0F00
1E00
1E00
3C00
3FFC
3FFC
3FFC
0000
0000
0000
0000
0000
ENDCHAR

STARTCHAR 3
ENCODING 51
SWIDTH 110 0
DWIDTH 16 0
BBX 16 32 0 -2
BITMAP
0000
0000
0000
07E0
1FF8
1FFC
3C3C
381E
380E
380E
001E
001E
003C
03FC
03F8
03FE
003E
000F
000F
0007
3807
380F
3C0F
1E3E
1FFE
0FFC
03F0
0000
0000
0000
0000
0000
ENDCHAR

STARTCHAR 4
ENCODING 52
SWIDTH 110 0
DWIDTH 16 0
BBX 16 32 0 -2
BITMAP
0000
0000
0000
0070
0070
00F0
00F0
01F0
01F0
03F0
0370
0770
0770
0F70
0E70
1E70
1C70
3C70
3870
7FFF
7FFF
7FFF
0070
0070
0070
0070
0070
0000
0000
0000
0000
0000
ENDCHAR

STARTCHAR 5
ENCODING 53
SWIDTH 110 0
DWIDTH 16 0
BBX 16 32 0 -2
BITMAP
0000
0000
0000
0000
3FFC
3FFC
3FFC
3800
3800
3800
3800
3800
3BE0
3FF8
3FFC
3E3C
381E
000E
000E
000E
000E
000E
381E
3C3C
3FFC
1FF8
07E0
0000
0000
0000
0000
0000
ENDCHAR

STARTCHAR 6
ENCODING 54
SWIDTH 110 0
DWIDTH 16 0
BBX 16 32 0 -2
BITMAP
0000
0000
0000
03E0
0FF8
1FF8
1E3C
3C1C
3C1C
3800
3800
3800
3BE0
3FF8
3FFC
3E3C
3C1E
380E
380E
380E
380E
380E
380E
3C1E
1E3C
1FFC
0FF8
03E0
0000
0000
0000
0000
ENDCHAR

STARTCHAR 7
ENCODING 55
SWIDTH 110 0
DWIDTH 16 0
BBX 16 32 0 -2
BITMAP
0000
0000
0000
0000
3FFE
3FFE
3FFE
380E
381C
383C
0038
0078
0070
0070
00F0
00E0
00E0
01E0
01E0
01C0
01C0
01C0
01C0
01C0
01C0
01C0
01C0
0000
0000
0000
0000
0000
ENDCHAR

STARTCHAR 8
ENCODING 56
SWIDTH 110 0
DWIDTH 16 0
BBX 16 32 0 -2
BITMAP
0000
0000
0000
03F0
0FFC
1FFE
1E1E
3C0F
3807
3807
3C07
1E0E
1F9E
0FFC
03F0
0FFC
1F7E
1E1E
3C0F
3807
3807
3807
3807
3C0F
1E1E
1FFE
0FFC
03F0
0000
0000
0000
0000
ENDCHAR

STARTCHAR 9
ENCODING 57
SWIDTH 110 0
DWIDTH 16 0
BBX 16 32 0 -2
BITMAP
0000
0000
0000
03E0
0FF8
1FFC
1E3C
3C1E
380E
380E
380E
380E
380E
380E
380E
1C1E
1E3E
0FFE
03EE
000E
000E
181E
3C1E
3E3C
1FFC
0FF8
03E0
0000
0000
0000
0000
0000
ENDCHAR

STARTCHAR :
ENCODING 58
SWIDTH 110 0
DWIDTH 16 0
BBX 16 32 0 -2
BITMAP
0000
0000
0000
0000
0000
0000
0000
0000
0000
0000
01C0
03E0
03E0
01C0
0000
0000
0000
0000
0000
0000
0000
01C0
03E0
03E0
01C0
0000
0000
0000
0000
0000
0000
0000
ENDCHAR

STARTCHAR ;
ENCODING 59
SWIDTH 110 0
DWIDTH 16 0
BBX 16 32 0 -2
BITMAP
0000
0000
0000
0000
0000
0000
0000
0000
0000
0000
01C0
03E0
03E0
01C0
0000
0000
0000
0000
0000
0000
0000
01C0
03E0
03E0
01E0
00C0
03C0
0380
0000
0000
0000
0000
ENDCHAR

STARTCHAR <
ENCODING 60
SWIDTH 110 0
DWIDTH 16 0
BBX 16 32 0 -2
BITMAP
0000
0000
0000
0000
0000
0003
0007
001F
003E
00F8
01F0
07C0
0F80
3E00
7C00
7000
7C00
3E00
0F80
07C0
01F0
00F8
003E
001F
0007
0003
0000
0000
0000
0000
0000
0000
ENDCHAR

STARTCHAR =
ENCODING 61
SWIDTH 110 0
DWIDTH 16 0
BBX 16 32 0 -2
BITMAP
0000
0000
0000
0000
0000
0000
0000
0000
0000
0000
0000
0000
7FFF
7FFF
7FFF
0000
0000
7FFF
7FFF
7FFF
0000
0000
0000
0000
0000
0000
0000
0000
0000
0000
0000
0000
ENDCHAR

STARTCHAR >
ENCODING 62
SWIDTH 110 0
DWIDTH 16 0
BBX 16 32 0 -2
BITMAP
0000
0000
0000
0000
0000
6000
7000
7C00
3E00
0F80
07C0
01F0
00F8
003E
001F
0007
001F
003E
00F8
01F0
07C0
0F80
3E00
7C00
7000
6000
0000
0000
0000
0000
0000
0000
ENDCHAR

STARTCHAR ?
ENCODING 63
SWIDTH 110 0
DWIDTH 16 0
BBX 16 32 0 -2
BITMAP
0000
0000
0000
07C0
1FF0
1FF0
3C78
3838
3838
0038
0038
0078
00F0
03F0
07E0
0780
0700
0700
0700
0700
0000
0000
0000
0780
0780
0780
0780
0000
0000
0000
0000
0000
ENDCHAR

STARTCHAR @
ENCODING 64
SWIDTH 110 0
DWIDTH 16 0
BBX 16 32 0 -2
BITMAP
0000
0000
0000
0000
0000
07F0
1FFC
3FFE
7C1E
7BA7
F7F7
EFF7
FE77
DC77
DC77
DC77
DC77
FE77
EFFE
EFFE
F3BC
7000
7C1C
3FFC
1FFC
07F0
0000
0000
0000
0000
0000
0000
ENDCHAR

STARTCHAR A
ENCODING 65
SWIDTH 110 0
DWIDTH 16 0
BBX 16 32 0 -2
BITMAP
0000
0000
01C0
01C0
01C0
03E0
03E0
03E0
03E0
07F0
0770
0770
0770
0F78
0E38
0E38
0E38
1E3C
1C1C
1FFC
1FFC
3FFE
380E
380E
380E
780F
780F
0000
0000
0000
0000
0000
ENDCHAR

STARTCHAR B
ENCODING 66
SWIDTH 110 0
DWIDTH 16 0
BBX 16 32 0 -2
BITMAP
0000
0000
0000
1FE0
1FF8
1FFC
1C3C
1C1E
1C0E
1C0E
1C0E
1C1E
1C3C
1FFC
1FF8
1FFE
1C1E
1C0F
1C07
1C07
1C07
1C07
1C0F
1C1E
1FFE
1FFC
1FF0
0000
0000
0000
0000
0000
ENDCHAR

STARTCHAR C
ENCODING 67
SWIDTH 110 0
DWIDTH 16 0
BBX 16 32 0 -2
BITMAP
0000
0000
0000
01F0
07FC
0FFE
1F9E
1E0F
3C07
3C07
3800
7800
7800
7000
7000
7000
7000
7000
7800
7807
3807
3C07
3C07
1E0F
1F1E
0FFE
07FC
01F0
0000
0000
0000
0000
ENDCHAR

STARTCHAR D
ENCODING 68
SWIDTH 110 0
DWIDTH 16 0
BBX 16 32 0 -2
BITMAP
0000
0000
0000
3FC0
3FF0
3FF8
38FC
383C
381E
380E
380E
3807
3807
3807
3807
3807
3807
3807
3807
380E
380E
381E
383C
38FC
3FF8
3FF0
3FC0
0000
0000
0000
0000
0000
ENDCHAR

STARTCHAR E
ENCODING 69
SWIDTH 110 0
DWIDTH 16 0
BBX 16 32 0 -2
BITMAP
0000
0000
0000
1FFC
1FFC
1FFC
1C00
1C00
1C00
1C00
1C00
1C00
1C00
1FF8
1FF8
1FF8
1C00
1C00
1C00
1C00
1C00
1C00
1C00
1C00
1FFC
1FFC
1FFC
0000
0000
0000
0000
0000
ENDCHAR

STARTCHAR F
ENCODING 70
SWIDTH 110 0
DWIDTH 16 0
BBX 16 32 0 -2
BITMAP
0000
0000
0000
1FFE
1FFE
1FFE
1C00
1C00
1C00
1C00
1C00
1C00
1C00
1C00
1FFC
1FFC
1FFC
1C00
1C00
1C00
1C00
1C00
1C00
1C00
1C00
1C00
1C00
0000
0000
0000
0000
0000
ENDCHAR

STARTCHAR G
ENCODING 71
SWIDTH 110 0
DWIDTH 16 0
BBX 16 32 0 -2
BITMAP
0000
0000
03F0
0FFC
1FFE
3F1E
3C0F
7807
7807
7007
7000
7000
7000
7000
7000
70FE
70FE
70FE
700E
700E
700E
780E
780E
3C0E
3F1E
1FFE
0FFC
03F0
0000
0000
0000
0000
ENDCHAR

STARTCHAR H
ENCODING 72
SWIDTH 110 0
DWIDTH 16 0
BBX 16 32 0 -2
BITMAP
0000
0000
0000
381C
381C
381C
381C
381C
381C
381C
381C
381C
381C
3FFC
3FFC
3FFC
381C
381C
381C
381C
381C
381C
381C
381C
381C
381C
381C
0000
0000
0000
0000
0000
ENDCHAR

STARTCHAR I
ENCODING 73
SWIDTH 110 0
DWIDTH 16 0
BBX 16 32 0 -2
BITMAP
0000
0000
0000
0380
0380
0380
0380
0380
0380
0380
0380
0380
0380
0380
0380
0380
0380
0380
0380
0380
0380
0380
0380
0380
0380
0380
0380
0000
0000
0000
0000
0000
ENDCHAR

STARTCHAR J
ENCODING 74
SWIDTH 110 0
DWIDTH 16 0
BBX 16 32 0 -2
BITMAP
0000
0000
0000
0070
0070
0070
0070
0070
0070
0070
0070
0070
0070
0070
0070
0070
0070
0070
0070
0070
0070
0070
0070
0070
0070
3870
3870
3CF0
3FE0
1FE0
0FC0
00C0
ENDCHAR

STARTCHAR K
ENCODING 75
SWIDTH 110 0
DWIDTH 16 0
BBX 16 32 0 -2
BITMAP
0000
0000
0000
1C0F
1C0F
1C1E
1C3C
1C3C
1C78
1CF0
1CF0
1DE0
1FE0
1BF0
1FF0
1F70
1F78
1E78
1C38
1C3C
1C3C
1C1C
1C1E
1C1E
1C0E
1C0F
1C0F
0000
0000
0000
0000
0000
ENDCHAR

STARTCHAR L
ENCODING 76
SWIDTH 110 0
DWIDTH 16 0
BBX 16 32 0 -2
BITMAP
0000
0000
0000
1C00
1C00
1C00
1C00
1C00
1C00
1C00
1C00
1C00
1C00
1C00
1C00
1C00
1C00
1C00
1C00
1C00
1C00
1C00
1C00
1C00
1FFE
1FFE
1FFE
0000
0000
0000
0000
0000
ENDCHAR

STARTCHAR M
ENCODING 77
SWIDTH 110 0
DWIDTH 16 0
BBX 16 32 0 -2
BITMAP
0000
0000
0000
780F
780F
780F
780F
7C1F
7C1F
7C1F
7C1F
7E3F
6E37
6E37
6E37
6F77
7F77
7777
7777
77F7
77E7
73E7
73E7
73E7
71C7
71C7
71C7
0000
0000
0000
0000
0000
ENDCHAR

STARTCHAR N
ENCODING 78
SWIDTH 110 0
DWIDTH 16 0
BBX 16 32 0 -2
BITMAP
0000
0000
0000
381C
381C
381C
3C1C
3C1C
3E1C
3E1C
3F1C
3F1C
379C
3F9C
3BDC
3BDC
39DC
39DC
38FC
38FC
387C
387C
383C
383C
381C
381C
381C
0000
0000
0000
0000
0000
ENDCHAR

STARTCHAR O
ENCODING 79
SWIDTH 110 0
DWIDTH 16 0
BBX 16 32 0 -2
BITMAP
0000
0000
03C0
0FF0
1FF8
3E7C
381C
781E
700E
700E
700E
700E
700E
700E
700E
700E
700E
700E
700E
700E
700E
781E
381C
3E7C
1FF8
0FF0
03C0
0000
0000
0000
0000
0000
ENDCHAR

STARTCHAR P
ENCODING 80
SWIDTH 110 0
DWIDTH 16 0
BBX 16 32 0 -2
BITMAP
0000
0000
0000
3FE0
3FF8
3FFC
383C
381E
380E
380E
380E
380E
380E
381E
383C
3FFC
3FF8
3FE0
3800
3800
3800
3800
3800
3800
3800
3800
3800
0000
0000
0000
0000
0000
ENDCHAR

STARTCHAR Q
ENCODING 81
SWIDTH 110 0
DWIDTH 16 0
BBX 16 32 0 -2
BITMAP
0000
0000
03C0
0FF0
1FF8
3E7C
381C
781E
700E
700E
700E
700E
700E
700E
700E
700E
700E
700E
700E
73CE
77EE
77FE
365C
3E7C
1FF8
0FF0
03F3
0073
003F
003F
001E
0000
ENDCHAR

STARTCHAR R
ENCODING 82
SWIDTH 110 0
DWIDTH 16 0
BBX 16 32 0 -2
BITMAP
0000
0000
0000
7FE0
7FF8
7FFC
703C
701E
700E
700E
700E
700E
700E
701E
703C
7FFC
7FF8
7FF0
70E0
70F0
7070
7078
7038
703C
701C
701E
700E
0000
0000
0000
0000
0000
ENDCHAR

STARTCHAR S
ENCODING 83
SWIDTH 110 0
DWIDTH 16 0
BBX 16 32 0 -2
BITMAP
0000
0000
07E0
1FF8
3FFC
3C1C
780E
700E
700E
7000
7800
3C00
3F80
1FE0
07F8
00FC
003C
001E
001E
000E
700E
700E
700E
781E
3C3C
3FFC
1FF8
07E0
0000
0000
0000
0000
ENDCHAR

STARTCHAR T
ENCODING 84
SWIDTH 110 0
DWIDTH 16 0
BBX 16 32 0 -2
BITMAP
0000
0000
0000
7FFF
7FFF
7FFF
01C0
01C0
01C0
01C0
01C0
01C0
01C0
01C0
01C0
01C0
01C0
01C0
01C0
01C0
01C0
01C0
01C0
01C0
01C0
01C0
01C0
0000
0000
0000
0000
0000
ENDCHAR

STARTCHAR U
ENCODING 85
SWIDTH 110 0
DWIDTH 16 0
BBX 16 32 0 -2
BITMAP
0000
0000
0000
700E
700E
700E
700E
700E
700E
700E
700E
700E
700E
700E
700E
700E
700E
700E
700E
700E
700E
700E
781E
781E
3C3C
3FFC
1FF8
07E0
0000
0000
0000
0000
ENDCHAR

STARTCHAR V
ENCODING 86
SWIDTH 110 0
DWIDTH 16 0
BBX 16 32 0 -2
BITMAP
0000
0000
0000
701C
701C
701C
701C
783C
3838
3838
3838
3C78
1C70
1C70
1C70
1EF0
0EE0
0EE0
0EE0
0FE0
07C0
07C0
07C0
07C0
0380
0380
0380
0380
0000
0000
0000
0000
ENDCHAR

STARTCHAR W
ENCODING 87
SWIDTH 110 0
DWIDTH 16 0
BBX 16 32 0 -2
BITMAP
0000
0000
0000
71C7
71C7
71C7
71C7
71C7
71C7
73E7
3BEE
3BEE
3BEE
3BEE
3BEE
3FFE
1F7C
1F7C
1F7C
1F7C
1F7C
1F7C
0E38
0E38
0E38
0E38
0E38
0E38
0000
0000
0000
0000
ENDCHAR

STARTCHAR X
ENCODING 88
SWIDTH 110 0
DWIDTH 16 0
BBX 16 32 0 -2
BITMAP
0000
0000
0000
3807
380F
3C0E
1C1E
1E1C
0E3C
0F38
0778
0770
03F0
03E0
01E0
03C0
03E0
07F0
0770
0F78
0E38
1E3C
1C1C
3C1E
380E
780F
7007
0000
0000
0000
0000
0000
ENDCHAR

STARTCHAR Y
ENCODING 89
SWIDTH 110 0
DWIDTH 16 0
BBX 16 32 0 -2
BITMAP
0000
0000
0000
7007
7007
780F
380E
3C1E
1C1C
1E3C
0E38
0F78
0770
07F0
03E0
03E0
01C0
01C0
01C0
01C0
01C0
01C0
01C0
01C0
01C0
01C0
01C0
0000
0000
0000
0000
0000
ENDCHAR

STARTCHAR Z
ENCODING 90
SWIDTH 110 0
DWIDTH 16 0
BBX 16 32 0 -2
BITMAP
0000
0000
0000
3FFE
3FFE
3FFE
001C
003C
0038
0078
0070
00F0
00E0
01E0
01C0
03C0
0380
0780
0700
0F00
0E00
1E00
1C00
3C00
3800
7FFE
7FFE
7FFE
0000
0000
0000
0000
ENDCHAR

STARTCHAR [
ENCODING 91
SWIDTH 110 0
DWIDTH 16 0
BBX 16 32 0 -2
BITMAP
0000
03F8
03F8
03F8
0380
0380
0380
0380
0380
0380
0380
0380
0380
0380
0380
0380
0380
0380
0380
0380
0380
0380
0380
0380
0380
0380
0380
0380
03F8
03F8
03F8
0000
ENDCHAR

STARTCHAR \
ENCODING 92
SWIDTH 110 0
DWIDTH 16 0
BBX 16 32 0 -2
BITMAP
0000
0000
0000
71C7
71C7
71C7
71C7
71C7
71C7
FFFF
FFFF
FFFF
3BEE
3BEE
3BEE
FFFF
FFFF
FFFF
1F7C
1F7C
1F7C
1F7C
0E38
0E38
0E38
0E38
0E38
0E38
0000
0000
0000
0000
ENDCHAR

STARTCHAR ]
ENCODING 93
SWIDTH 110 0
DWIDTH 16 0
BBX 16 32 0 -2
BITMAP
0000
1FC0
1FC0
1FC0
01C0
01C0
01C0
01C0
01C0
01C0
01C0
01C0
01C0
01C0
01C0
01C0
01C0
01C0
01C0
01C0
01C0
01C0
01C0
01C0
01C0
01C0
01C0
01C0
1FC0
1FC0
1FC0
0000
ENDCHAR

STARTCHAR ^
ENCODING 94
SWIDTH 110 0
DWIDTH 16 0
BBX 16 32 0 -2
BITMAP
0000
01C0
01C0
03E0
03E0
07F0
0770
0F78
0E38
1E3C
1C1C
3C1E
380E
0000
0000
0000
0000
0000
0000
0000
0000
0000
0000
0000
0000
0000
0000
0000
0000
0000
0000
0000
ENDCHAR

STARTCHAR _
ENCODING 95
SWIDTH 110 0
DWIDTH 16 0
BBX 16 32 0 -2
BITMAP
0000
0000
0000
0000
0000
0000
0000
0000
0000
0000
0000
0000
0000
0000
0000
0000
0000
0000
0000
0000
0000
0000
0000
0000
0000
0000
0000
7FFE
7FFE
7FFE
0000
0000
ENDCHAR

STARTCHAR `
ENCODING 96
SWIDTH 110 0
DWIDTH 16 0
BBX 16 32 0 -2
BITMAP
00E0
01E0
01C0
0380
03E0
03E0
01C0
0000
0000
0000
0000
0000
0000
0000
0000
0000
0000
0000
0000
0000
0000
0000
0000
0000
0000
0000
0000
0000
0000
0000
0000
0000
ENDCHAR

STARTCHAR a
ENCODING 97
SWIDTH 110 0
DWIDTH 16 0
BBX 16 32 0 -2
BITMAP
0000
0000
0000
0000
0000
0000
0000
0000
0FC0
3FF0
3FF0
7878
7038
7038
0038
0FF8
3FF8
3FF8
7838
7038
7038
7038
7038
7878
3FF8
3FF8
0FB8
0000
0000
0000
0000
0000
ENDCHAR

STARTCHAR b
ENCODING 98
SWIDTH 110 0
DWIDTH 16 0
BBX 16 32 0 -2
BITMAP
0000
0000
3800
3800
3800
3800
3800
3800
3BC0
3FF0
3FF8
3E78
3C3C
383C
381C
381C
381C
381C
381C
381C
381C
383C
3C3C
3E78
3FF8
3FF0
3BC0
0000
0000
0000
0000
0000
ENDCHAR

STARTCHAR c
ENCODING 99
SWIDTH 110 0
DWIDTH 16 0
BBX 16 32 0 -2
BITMAP
0000
0000
0000
0000
0000
0000
0000
0000
03E0
0FF8
1FFC
1F3C
3C1E
3C0E
380E
3800
3800
3800
3800
3800
380E
3C0E
3C1E
1F3C
1FFC
0FF8
03E0
0000
0000
0000
0000
0000
ENDCHAR

STARTCHAR d
ENCODING 100
SWIDTH 110 0
DWIDTH 16 0
BBX 16 32 0 -2
BITMAP
0000
0000
0038
0038
0038
0038
0038
0038
07B8
1FF8
3FF8
3C78
7838
7838
7038
7038
7038
7038
7038
7038
7038
7838
7838
3C78
3FF8
1FF8
07B8
0000
0000
0000
0000
0000
ENDCHAR

STARTCHAR e
ENCODING 101
SWIDTH 110 0
DWIDTH 16 0
BBX 16 32 0 -2
BITMAP
0000
0000
0000
0000
0000
0000
0000
0000
03E0
0FF8
1FFC
1E3C
3C1E
3C0E
380E
380E
3FFE
3FFE
3FFE
3800
3800
3C0E
3C0E
1F1E
1FFC
0FFC
03F0
0000
0000
0000
0000
0000
ENDCHAR

STARTCHAR f
ENCODING 102
SWIDTH 110 0
DWIDTH 16 0
BBX 16 32 0 -2
BITMAP
0000
0000
0000
01F0
03F8
03F8
03B8
0380
0380
1FF0
1FF0
1FF0
0380
0380
0380
0380
0380
0380
0380
0380
0380
0380
0380
0380
0380
0380
0380
0000
0000
0000
0000
0000
ENDCHAR

STARTCHAR g
ENCODING 103
SWIDTH 110 0
DWIDTH 16 0
BBX 16 32 0 -2
BITMAP
0000
0000
0000
0000
0000
0000
0000
0000
07DC
1FFC
1FFC
3C3C
381C
381C
381C
381C
381C
381C
381C
381C
3C3C
1FFC
1FFC
07DC
001C
001C
381C
383C
3C3C
1FF8
1FF8
07E0
ENDCHAR

STARTCHAR h
ENCODING 104
SWIDTH 110 0
DWIDTH 16 0
BBX 16 32 0 -2
BITMAP
0000
0000
1C00
1C00
1C00
1C00
1C00
1C00
1FF0
1BF8
1FFC
1F3C
1E1C
1C1C
1C1C
1C1C
1C1C
1C1C
1C1C
1C1C
1C1C
1C1C
1C1C
1C1C
1C1C
1C1C
1C1C
0000
0000
0000
0000
0000
ENDCHAR

STARTCHAR i
ENCODING 105
SWIDTH 110 0
DWIDTH 16 0
BBX 16 32 0 -2
BITMAP
0000
0000
0000
01C0
01C0
01C0
01C0
0000
0000
01C0
01C0
01C0
01C0
01C0
01C0
01C0
01C0
01C0
01C0
01C0
01C0
01C0
01C0
01C0
01C0
01C0
01C0
0000
0000
0000
0000
0000
ENDCHAR

STARTCHAR j
ENCODING 106
SWIDTH 110 0
DWIDTH 16 0
BBX 16 32 0 -2
BITMAP
0000
0000
0000
0070
0070
0070
0070
0000
0000
0070
0070
0070
0070
0070
0070
0070
0070
0070
0070
0070
0070
0070
0070
0070
0070
0070
0070
0E70
0E70
0FF0
0FE0
07C0
ENDCHAR

STARTCHAR k
ENCODING 107
SWIDTH 110 0
DWIDTH 16 0
BBX 16 32 0 -2
BITMAP
0000
0000
1C00
1C00
1C00
1C00
1C00
1C00
1C07
1C0F
1C1E
1C3C
1C38
1C78
1CF0
1DE0
1DE0
1FE0
1BF0
1F70
1E78
1E38
1C3C
1C1C
1C1E
1C0E
1C0E
0000
0000
0000
0000
0000
ENDCHAR

STARTCHAR l
ENCODING 108
SWIDTH 110 0
DWIDTH 16 0
BBX 16 32 0 -2
BITMAP
0000
0000
0000
0380
0380
0380
0380
0380
0380
0380
0380
0380
0380
0380
0380
0380
0380
0380
0380
0380
0380
0380
0380
0380
0380
0380
0380
0000
0000
0000
0000
0000
ENDCHAR

STARTCHAR m
ENCODING 109
SWIDTH 110 0
DWIDTH 16 0
BBX 16 32 0 -2
BITMAP
0000
0000
0000
0000
0000
0000
0000
0000
3778
3FFC
3FFE
3DDE
39CE
39CE
39CE
39CE
39CE
39CE
39CE
39CE
39CE
39CE
39CE
39CE
39CE
39CE
39CE
0000
0000
0000
0000
0000
ENDCHAR

STARTCHAR n
ENCODING 110
SWIDTH 110 0
DWIDTH 16 0
BBX 16 32 0 -2
BITMAP
0000
0000
0000
0000
0000
0000
0000
0000
1BF0
1FF8
1FFC
1E3C
1C1C
1C1C
1C1C
1C1C
1C1C
1C1C
1C1C
1C1C
1C1C
1C1C
1C1C
1C1C
1C1C
1C1C
1C1C
0000
0000
0000
0000
0000
ENDCHAR

STARTCHAR o
ENCODING 111
SWIDTH 110 0
DWIDTH 16 0
BBX 16 32 0 -2
BITMAP
0000
0000
0000
0000
0000
0000
0000
0000
03F0
0FFC
1FFE
1F3E
3C0F
3C0F
3807
3807
3807
3807
3807
3807
3807
3C0F
3C0F
1F3E
1FFE
0FFC
03F0
0000
0000
0000
0000
0000
ENDCHAR

STARTCHAR p
ENCODING 112
SWIDTH 110 0
DWIDTH 16 0
BBX 16 32 0 -2
BITMAP
0000
0000
0000
0000
0000
0000
0000
0000
1DF0
1FFC
1FFE
1F1E
1E0F
1C07
1C07
1C07
1C07
1C07
1C07
1C07
1C07
1C07
1E0F
1F1E
1FFE
1FFC
1DF0
1C00
1C00
1C00
1C00
1C00
ENDCHAR

STARTCHAR q
ENCODING 113
SWIDTH 110 0
DWIDTH 16 0
BBX 16 32 0 -2
BITMAP
0000
0000
0000
0000
0000
0000
0000
0000
07B8
1FF8
3FF8
3CF8
7878
7838
7038
7038
7038
7038
7038
7038
7038
7838
7878
3CF8
3FF8
1FF8
07B8
0038
0038
0038
0038
0038
ENDCHAR

STARTCHAR r
ENCODING 114
SWIDTH 110 0
DWIDTH 16 0
BBX 16 32 0 -2
BITMAP
0000
0000
0000
0000
0000
0000
0000
0000
073C
07FE
06FE
07EE
07C0
0780
0700
0700
0700
0700
0700
0700
0700
0700
0700
0700
0700
0700
0700
0000
0000
0000
0000
0000
ENDCHAR

STARTCHAR s
ENCODING 115
SWIDTH 110 0
DWIDTH 16 0
BBX 16 32 0 -2
BITMAP
0000
0000
0000
0000
0000
0000
0000
0000
07F0
1FFC
1FFE
3C1E
380E
3C0E
3F00
1FE0
0FF8
03FC
007C
001E
381E
380E
380E
3C1E
1FFC
1FFC
07F0
0000
0000
0000
0000
0000
ENDCHAR

STARTCHAR t
ENCODING 116
SWIDTH 110 0
DWIDTH 16 0
BBX 16 32 0 -2
BITMAP
0000
0000
0000
0000
0000
0380
0380
0380
0380
0380
0380
1FF8
1FF8
1FF8
0380
0380
0380
0380
0380
0380
0380
0380
039C
03DC
01FC
01F8
00F0
0000
0000
0000
0000
0000
ENDCHAR

STARTCHAR u
ENCODING 117
SWIDTH 110 0
DWIDTH 16 0
BBX 16 32 0 -2
BITMAP
0000
0000
0000
0000
0000
0000
0000
0000
381C
381C
381C
381C
381C
381C
381C
381C
381C
381C
381C
381C
381C
381C
381C
3C3C
1FFC
1FFC
07DC
0000
0000
0000
0000
0000
ENDCHAR

STARTCHAR v
ENCODING 118
SWIDTH 110 0
DWIDTH 16 0
BBX 16 32 0 -2
BITMAP
0000
0000
0000
0000
0000
0000
0000
0000
3807
3807
3807
3C0F
1C0E
1C0E
1E1E
0E1C
0E1C
0F3C
0738
0738
0778
0370
0370
03F0
01E0
01E0
01E0
0000
0000
0000
0000
0000
ENDCHAR

STARTCHAR w
ENCODING 119
SWIDTH 110 0
DWIDTH 16 0
BBX 16 32 0 -2
BITMAP
0000
0000
0000
0000
0000
0000
0000
0000
71C7
71C7
71C7
71C7
71C7
7BEF
3BEE
3BEE
3BEE
3BEE
3F7E
1F7C
1F7C
1F7C
1F7C
0E38
0E38
0E38
0E38
0000
0000
0000
0000
0000
ENDCHAR

STARTCHAR x
ENCODING 120
SWIDTH 110 0
DWIDTH 16 0
BBX 16 32 0 -2
BITMAP
0000
0000
0000
0000
0000
0000
0000
0000
1C1C
1C1C
1E3C
0E38
0F78
0770
07F0
03E0
03E0
01C0
03E0
03E0
07F0
0770
0F78
0E38
1E3C
1C1C
1C1C
0000
0000
0000
0000
0000
ENDCHAR

STARTCHAR y
ENCODING 121
SWIDTH 110 0
DWIDTH 16 0
BBX 16 32 0 -2
BITMAP
0000
0000
0000
0000
0000
0000
0000
0000
1C0E
1C0E
1C0E
1C0E
1E1E
0E1C
0E1C
0E1C
0F3C
0738
0738
0738
0778
0370
0370
03F0
03E0
01E0
01E0
03C0
07C0
3F80
3F00
3C00
ENDCHAR

STARTCHAR z
ENCODING 122
SWIDTH 110 0
DWIDTH 16 0
BBX 16 32 0 -2
BITMAP
0000
0000
0000
0000
0000
0000
0000
0000
3FFC
3FFC
3FF8
0078
00F0
00F0
01E0
01E0
03C0
03C0
0780
0780
0F00
0F00
1E00
1E00
3DFC
3FFC
3FFC
0000
0000
0000
0000
0000
ENDCHAR

STARTCHAR {
ENCODING 123
SWIDTH 110 0
DWIDTH 16 0
BBX 16 32 0 -2
BITMAP
0000
003C
00FC
01E0
01C0
03C0
0380
0380
0380
0380
0380
0380
0380
0780
1F00
1F00
0780
0380
0380
0380
0380
0380
0380
0380
0380
03C0
01C0
01E0
00FC
003C
0000
0000
ENDCHAR

STARTCHAR |
ENCODING 124
SWIDTH 110 0
DWIDTH 16 0
BBX 16 32 0 -2
BITMAP
0000
01C0
01C0
01C0
01C0
01C0
01C0
01C0
01C0
01C0
01C0
01C0
01C0
0000
0000
0000
0000
01C0
01C0
01C0
01C0
01C0
01C0
01C0
01C0
01C0
01C0
01C0
01C0
01C0
0000
0000
ENDCHAR

STARTCHAR }
ENCODING 125
SWIDTH 110 0
DWIDTH 16 0
BBX 16 32 0 -2
BITMAP
0000
1E00
1F80
03C0
01C0
01E0
00E0
00E0
00E0
00E0
00E0
00E0
00F0
007C
007C
00F0
00E0
00E0
00E0
00E0
00E0
00E0
00E0
00E0
00E0
01E0
01C0
03C0
1F80
1E00
0000
0000
ENDCHAR

STARTCHAR ~
ENCODING 126
SWIDTH 110 0
DWIDTH 16 0
BBX 16 32 0 -2
BITMAP
0000
0000
0000
0000
0000
0000
0000
0000
0000
0000
0000
0000
0F01
3FC1
3FF3
73FF
60FF
603E
0000
0000
0000
0000
0000
0000
0000
0000
0000
0000
0000
0000
0000
0000
ENDCHAR

STARTCHAR 
ENCODING 127
SWIDTH 110 0
DWIDTH 16 0
BBX 16 32 0 -2
BITMAP
0000
0000
0000
0000
0000
0000
0000
0000
0000
0000
0000
0000
0000
0000
0000
0000
0000
0000
0000
0000
0000
0000
0000
0000
0000
0000
0000
0000
0000
0000
0000
0000
ENDCHAR

STARTCHAR Ä
ENCODING 128
SWIDTH 110 0
DWIDTH 16 0
BBX 16 32 0 -2
BITMAP
0000
0000
03F0
0FFC
1FFE
3E1F
3C0F
7807
7807
7000
7000
7000
7000
7000
7000
7000
7000
7000
7007
7007
7807
780F
3C1E
3F7E
1FFC
0FF8
03E0
00C0
00E0
07E0
07E0
03C0
ENDCHAR

STARTCHAR Å
ENCODING 129
SWIDTH 110 0
DWIDTH 16 0
BBX 16 32 0 -2
BITMAP
0000
0000
0000
0000
0000
0000
3C3C
3C3C
3C3C
3C3C
0000
0000
0000
381C
381C
381C
381C
381C
381C
381C
381C
381C
381C
381C
381C
3C1C
3E3C
1FFC
1FFC
07DC
0000
0000
ENDCHAR

STARTCHAR Ç
ENCODING 130
SWIDTH 110 0
DWIDTH 16 0
BBX 16 32 0 -2
BITMAP
0000
0000
0000
0000
0000
00F0
00F0
00F0
01E0
01C0
0380
0300
0000
03E0
0FF8
1FFC
1E3C
3C1E
380E
3FFE
3FFE
3FFE
3800
3800
3C0E
1E1E
1FFE
0FFC
03F0
0000
0000
0000
ENDCHAR

STARTCHAR É
ENCODING 131
SWIDTH 110 0
DWIDTH 16 0
BBX 16 32 0 -2
BITMAP
0000
0000
0000
0000
00C0
01E0
03F0
0778
0F3C
1E1E
1C0E
1806
0000
03E0
0FF8
0FF8
1E3C
1C1C
1C1C
001C
03FC
0FFC
0FFC
1E1C
1C1C
1C1C
1E3C
0FFC
0FFC
03DC
0000
0000
ENDCHAR

STARTCHAR Ñ
ENCODING 132
SWIDTH 110 0
DWIDTH 16 0
BBX 16 32 0 -2
BITMAP
0000
0000
0000
0000
0000
0000
1E3C
1E3C
1E3C
1E3C
0000
0000
0000
03E0
0FF8
0FF8
1E3C
1C1C
1C1C
001C
03FC
0FFC
0FFC
1E1C
1C1C
1C1C
1E3C
0FFC
0FFC
03DC
0000
0000
ENDCHAR

STARTCHAR Ö
ENCODING 133
SWIDTH 110 0
DWIDTH 16 0
BBX 16 32 0 -2
BITMAP
0000
0000
0000
0000
0000
03C0
03C0
03C0
01E0
00E0
0070
0030
0000
03E0
0FF8
0FF8
1E3C
1C1C
1C1C
001C
03FC
0FFC
0FFC
1E1C
1C1C
1C1C
1E3C
0FFC
0FFC
03DC
0000
0000
ENDCHAR

STARTCHAR Ü
ENCODING 134
SWIDTH 110 0
DWIDTH 16 0
BBX 16 32 0 -2
BITMAP
0000
0000
0000
0000
0000
01E0
03F0
0738
0618
0738
03F0
01E0
0000
03E0
0FF8
0FF8
1E3C
1C1C
1C1C
001C
03FC
0FFC
0FFC
1E1C
1C1C
1C1C
1E3C
0FFC
0FFC
03DC
0000
0000
ENDCHAR

STARTCHAR á
ENCODING 135
SWIDTH 110 0
DWIDTH 16 0
BBX 16 32 0 -2
BITMAP
0000
0000
0000
0000
0000
0000
0000
0000
0000
0000
03E0
0FF8
1FFC
1F3E
3C1E
3C0E
380E
3800
3800
3800
3800
3C0E
3C0E
1F1E
1FFE
0FFC
03F8
00E0
0070
01F0
01E0
0000
ENDCHAR

STARTCHAR à
ENCODING 136
SWIDTH 110 0
DWIDTH 16 0
BBX 16 32 0 -2
BITMAP
0000
0000
0000
0000
00C0
01E0
03F0
0778
0F3C
1E1E
3C0F
3807
0000
03E0
0FF8
1FFC
1E3C
3C1E
380E
3FFE
3FFE
3FFE
3800
3C0E
3C0E
1E1E
1FFC
0FFC
03F0
0000
0000
0000
ENDCHAR

STARTCHAR â
ENCODING 137
SWIDTH 110 0
DWIDTH 16 0
BBX 16 32 0 -2
BITMAP
0000
0000
0000
0000
0000
0000
1E3C
1E3C
1E3C
1E3C
0000
0000
0000
03E0
0FF8
1FFC
1E3C
3C1E
380E
3FFE
3FFE
3FFE
3800
3800
3C0E
1E1E
1FFE
0FFC
03F0
0000
0000
0000
ENDCHAR

STARTCHAR ä
ENCODING 138
SWIDTH 110 0
DWIDTH 16 0
BBX 16 32 0 -2
BITMAP
0000
0000
0000
0000
0000
03C0
03C0
03C0
01E0
00E0
0070
0030
0000
03E0
0FF8
1FFC
1E3C
3C1E
380E
3FFE
3FFE
3FFE
3800
3800
3C0E
1E1E
1FFE
0FFC
03F0
0000
0000
0000
ENDCHAR

STARTCHAR ã
ENCODING 139
SWIDTH 110 0
DWIDTH 16 0
BBX 16 32 0 -2
BITMAP
0000
0000
0000
0000
0000
0000
1E3C
1E3C
1E3C
1E3C
0000
0000
0000
01C0
01C0
01C0
01C0
01C0
01C0
01C0
01C0
01C0
01C0
01C0
01C0
01C0
01C0
01C0
01C0
01C0
0000
0000
ENDCHAR

STARTCHAR å
ENCODING 140
SWIDTH 110 0
DWIDTH 16 0
BBX 16 32 0 -2
BITMAP
0000
0000
0000
0000
01C0
03E0
07F0
0F78
1E3C
1C1C
180C
0000
0000
01C0
01C0
01C0
01C0
01C0
01C0
01C0
01C0
01C0
01C0
01C0
01C0
01C0
01C0
01C0
01C0
01C0
0000
0000
ENDCHAR

STARTCHAR ç
ENCODING 141
SWIDTH 110 0
DWIDTH 16 0
BBX 16 32 0 -2
BITMAP
0000
0000
0000
0000
0000
03C0
03C0
03C0
01E0
00E0
0070
0030
0000
01C0
01C0
01C0
01C0
01C0
01C0
01C0
01C0
01C0
01C0
01C0
01C0
01C0
01C0
01C0
01C0
01C0
0000
0000
ENDCHAR

STARTCHAR é
ENCODING 142
SWIDTH 110 0
DWIDTH 16 0
BBX 16 32 0 -2
BITMAP
0000
1E3C
1E3C
1E3C
1E3C
0000
0000
01C0
01C0
01C0
03E0
03E0
03E0
07F0
07F0
0770
0770
0F78
0E38
0E38
1FFC
1FFC
1FFC
3C1E
380E
380E
780F
7007
7007
7007
0000
0000
ENDCHAR

STARTCHAR è
ENCODING 143
SWIDTH 110 0
DWIDTH 16 0
BBX 16 32 0 -2
BITMAP
03E0
07F0
0630
0630
07F0
03E0
0000
01C0
01C0
01C0
03E0
03E0
03E0
07F0
07F0
0770
0770
0F78
0E38
0E38
1FFC
1FFC
1FFC
3C1E
380E
380E
780F
7007
7007
7007
0000
0000
ENDCHAR

STARTCHAR ê
ENCODING 144
SWIDTH 110 0
DWIDTH 16 0
BBX 16 32 0 -2
BITMAP
00F0
00F0
00F0
01E0
01C0
0380
0300
3CFF
3FFF
3FFF
3800
3800
3800
3800
3800
3800
3800
3FFC
3FFC
3FFC
3800
3800
3800
3800
3800
3800
3800
3FFF
3FFF
3FFF
0000
0000
ENDCHAR

STARTCHAR ë
ENCODING 145
SWIDTH 110 0
DWIDTH 16 0
BBX 16 32 0 -2
BITMAP
0000
0000
0000
0000
0000
0000
0000
0000
0000
0000
0000
0000
0000
0000
3EF8
7FFC
7FFE
73CE
038E
038E
1FFE
3FFE
7FFE
7B80
7380
738E
73CE
7FFE
3FFE
1F7C
0000
0000
ENDCHAR

STARTCHAR í
ENCODING 146
SWIDTH 110 0
DWIDTH 16 0
BBX 16 32 0 -2
BITMAP
0000
0000
0000
0000
0000
07FF
07FF
07FF
07C0
0FC0
0FC0
0DC0
0DC0
0DC0
1DC0
1DC0
1DFE
1DFE
3FFE
3FC0
3FC0
39C0
79C0
71C0
71C0
71C0
F1C0
E1FF
E1FF
E1FF
0000
0000
ENDCHAR

STARTCHAR ì
ENCODING 147
SWIDTH 110 0
DWIDTH 16 0
BBX 16 32 0 -2
BITMAP
0000
0000
0000
0000
01C0
03E0
07F0
0F78
1E3C
3C1E
380E
3006
0000
03E0
0FF8
1FFC
1E3C
3C1E
380E
380E
380E
380E
380E
380E
380E
3C1E
1E3C
1FFC
0FF8
03E0
0000
0000
ENDCHAR

STARTCHAR î
ENCODING 148
SWIDTH 110 0
DWIDTH 16 0
BBX 16 32 0 -2
BITMAP
0000
0000
0000
0000
0000
0000
3C3C
3C3C
3C3C
3C3C
0000
0000
0000
03E0
0FF8
1FFC
1E3C
3C1E
380E
380E
380E
380E
380E
380E
380E
3C1E
1E3C
1FFC
0FF8
03E0
0000
0000
ENDCHAR

STARTCHAR ï
ENCODING 149
SWIDTH 110 0
DWIDTH 16 0
BBX 16 32 0 -2
BITMAP
0000
0000
0000
0000
0000
0780
0780
0780
03C0
01C0
00E0
0060
0000
03E0
0FF8
1FFC
1E3C
3C1E
380E
380E
380E
380E
380E
380E
380E
3C1E
1E3C
1FFC
0FF8
03E0
0000
0000
ENDCHAR

STARTCHAR ñ
ENCODING 150
SWIDTH 110 0
DWIDTH 16 0
BBX 16 32 0 -2
BITMAP
0000
0000
0000
0000
0380
07C0
0FE0
1EF0
3C78
3838
3018
0000
0000
381C
381C
381C
381C
381C
381C
381C
381C
381C
381C
381C
381C
3C3C
1FFC
1FFC
07DC
0000
0000
0000
ENDCHAR

STARTCHAR ó
ENCODING 151
SWIDTH 110 0
DWIDTH 16 0
BBX 16 32 0 -2
BITMAP
0000
0000
0000
0000
0000
0780
0780
0780
03C0
01C0
00E0
0060
0000
381C
381C
381C
381C
381C
381C
381C
381C
381C
381C
381C
381C
381C
3C3C
1FFC
1FFC
07DC
0000
0000
ENDCHAR

STARTCHAR ò
ENCODING 152
SWIDTH 110 0
DWIDTH 16 0
BBX 16 32 0 -2
BITMAP
0000
0000
0000
0000
0000
0000
1E3C
1E3C
1E3C
1E3C
0000
0000
0000
380E
380E
3C0E
1C1E
1E1C
0E3C
0F38
0778
0770
03F0
03E0
01E0
03C0
0780
0780
0F00
1E00
1E00
1C00
ENDCHAR

STARTCHAR ô
ENCODING 153
SWIDTH 110 0
DWIDTH 16 0
BBX 16 32 0 -2
BITMAP
1E3C
1E3C
1E3C
1E3C
0000
0000
03E0
0FF8
1FFC
3E3E
3C1E
780F
780F
7007
7007
7007
7007
7007
7007
7007
7007
7007
780F
780F
3C1E
3E3E
1FFC
0FF8
03E0
0000
0000
0000
ENDCHAR

STARTCHAR ö
ENCODING 154
SWIDTH 110 0
DWIDTH 16 0
BBX 16 32 0 -2
BITMAP
1E3C
1E3C
1E3C
1E3C
0000
0000
380E
380E
380E
380E
380E
380E
380E
380E
380E
380E
380E
380E
380E
380E
380E
380E
380E
380E
380E
3C1E
1E3C
1FFC
0FF8
03E0
0000
0000
ENDCHAR

STARTCHAR õ
ENCODING 155
SWIDTH 110 0
DWIDTH 16 0
BBX 16 32 0 -2
BITMAP
0000
0000
0000
0000
0000
00E0
00E0
00E0
00E0
03F0
0FFC
1FFC
1E1E
3C0E
380E
380E
3800
3800
3800
3800
3C0E
1E1E
1FFE
0FFC
03F0
00E0
00E0
00E0
00E0
00E0
0000
0000
ENDCHAR

STARTCHAR ú
ENCODING 156
SWIDTH 110 0
DWIDTH 16 0
BBX 16 32 0 -2
BITMAP
0000
0000
0000
0000
0000
00E0
03F8
07F8
07BC
0F1C
0E1C
0E1C
0E00
0F00
0F00
37E0
3FE0
3FE0
0700
0780
0780
0380
3B80
7F87
7F87
77C7
6FEF
7DFE
3CFE
0038
0000
0000
ENDCHAR

STARTCHAR ù
ENCODING 157
SWIDTH 110 0
DWIDTH 16 0
BBX 16 32 0 -2
BITMAP
0000
0000
0000
0000
0000
380E
380E
380E
3C1E
1C1C
1E3C
0E38
0E38
0F78
0770
07F0
03E0
03E0
0DD8
0FF8
0FF8
01C0
0FF8
0FF8
01C0
01C0
01C0
01C0
01C0
01C0
01C0
0000
ENDCHAR

STARTCHAR û
ENCODING 158
SWIDTH 110 0
DWIDTH 16 0
BBX 16 32 0 -2
BITMAP
0000
0000
0000
0000
0000
7800
7E00
7E00
6F00
7700
7770
7770
7770
7770
7770
7770
7FFE
6EFE
7EFE
7C70
7070
7070
7070
7070
7070
7077
7077
707F
703F
701E
0000
0000
ENDCHAR

STARTCHAR ü
ENCODING 159
SWIDTH 110 0
DWIDTH 16 0
BBX 16 32 0 -2
BITMAP
0000
0000
0000
0000
0000
003C
00FE
00FE
01EE
01C0
01C0
01C0
01C0
01C0
1FFC
1FFC
1FFC
01C0
01C0
01C0
01C0
01C0
01C0
01C0
01C0
01C0
39C0
3BC0
3F80
3F80
1E00
0000
ENDCHAR

STARTCHAR †
ENCODING 160
SWIDTH 110 0
DWIDTH 16 0
BBX 16 32 0 -2
BITMAP
0000
0000
0000
0000
0000
00E0
00E0
01E0
01C0
0380
0700
0600
0000
07C0
1FF0
1FF0
3C78
3838
3838
0038
07F8
1FF8
1FF8
3C38
3838
3838
3C78
3FF8
1FF8
07B8
0000
0000
ENDCHAR

STARTCHAR °
ENCODING 161
SWIDTH 110 0
DWIDTH 16 0
BBX 16 32 0 -2
BITMAP
0000
0000
0000
0000
0000
01E0
01E0
01E0
03C0
0380
0700
0600
0000
0380
0380
0380
0380
0380
0380
0380
0380
0380
0380
0380
0380
0380
0380
0380
0380
0380
0000
0000
ENDCHAR

STARTCHAR ¢
ENCODING 162
SWIDTH 110 0
DWIDTH 16 0
BBX 16 32 0 -2
BITMAP
0000
0000
0000
0000
0000
00F0
00F0
00F0
01E0
01C0
0380
0300
0000
03E0
0FF8
1FFC
1E3C
3C1E
380E
380E
380E
380E
380E
380E
380E
3C1E
1E3C
1FFC
0FF8
03E0
0000
0000
ENDCHAR

STARTCHAR £
ENCODING 163
SWIDTH 110 0
DWIDTH 16 0
BBX 16 32 0 -2
BITMAP
0000
0000
0000
0000
0000
00F0
00F0
00F0
01E0
01C0
0380
0300
0000
381C
381C
381C
381C
381C
381C
381C
381C
381C
381C
381C
381C
381C
3C3C
1FFC
1FFC
07DC
0000
0000
ENDCHAR

STARTCHAR §
ENCODING 164
SWIDTH 110 0
DWIDTH 16 0
BBX 16 32 0 -2
BITMAP
0000
0000
0000
0000
0000
1E03
3F83
3FE7
73FE
60FE
603C
0000
0000
1BF0
1FF8
1FFC
1E3C
1C1C
1C1C
1C1C
1C1C
1C1C
1C1C
1C1C
1C1C
1C1C
1C1C
1C1C
1C1C
1C1C
0000
0000
ENDCHAR

STARTCHAR •
ENCODING 165
SWIDTH 110 0
DWIDTH 16 0
BBX 16 32 0 -2
BITMAP
0F0C
1FCC
1FFC
19FC
1878
0000
380E
380E
3C0E
3C0E
3E0E
3E0E
3F0E
370E
3F8E
3B8E
3BCE
39CE
39EE
38EE
38EE
386E
387E
383E
383E
381E
381E
380E
380E
380E
0000
0000
ENDCHAR

STARTCHAR ¶
ENCODING 166
SWIDTH 110 0
DWIDTH 16 0
BBX 16 32 0 -2
BITMAP
0000
03B8
07F8
0FF8
0F38
0E38
0F38
0FFC
07FC
03DC
0000
0FFC
0FFC
0FFC
0000
0000
0000
0000
0000
0000
0000
0000
0000
0000
0000
0000
0000
0000
0000
0000
0000
0000
ENDCHAR

STARTCHAR ß
ENCODING 167
SWIDTH 110 0
DWIDTH 16 0
BBX 16 32 0 -2
BITMAP
0000
01E0
07F8
07F8
0F3C
0E1C
0F3C
07F8
07F8
01E0
0000
0FFC
0FFC
0FFC
0000
0000
0000
0000
0000
0000
0000
0000
0000
0000
0000
0000
0000
0000
0000
0000
0000
0000
ENDCHAR

STARTCHAR ®
ENCODING 168
SWIDTH 110 0
DWIDTH 16 0
BBX 16 32 0 -2
BITMAP
0000
0000
0000
0000
0000
01C0
01C0
01C0
01C0
0000
0000
0000
01C0
01C0
01C0
01C0
01C0
03C0
0780
0F00
1E00
1C00
3C0E
380E
380E
3C0E
1E1E
1FFC
0FFC
03F0
0000
0000
ENDCHAR

STARTCHAR ©
ENCODING 169
SWIDTH 110 0
DWIDTH 16 0
BBX 16 32 0 -2
BITMAP
0000
0000
0000
0000
0000
0000
0000
0000
7FFF
7FFF
7FFF
7000
7000
7000
7000
7000
7000
7000
7000
7000
0000
0000
0000
0000
0000
0000
0000
0000
0000
0000
0000
0000
ENDCHAR

STARTCHAR ™
ENCODING 170
SWIDTH 110 0
DWIDTH 16 0
BBX 16 32 0 -2
BITMAP
0000
0000
0000
0000
0000
0000
0000
0000
7FFF
7FFF
7FFF
0007
0007
0007
0007
0007
0007
0007
0007
0007
0000
0000
0000
0000
0000
0000
0000
0000
0000
0000
0000
0000
ENDCHAR

STARTCHAR ´
ENCODING 171
SWIDTH 110 0
DWIDTH 16 0
BBX 16 32 0 -2
BITMAP
0000
0000
7038
7038
7038
7078
7070
7070
70F0
70E0
70E0
71E0
71C0
73C0
7380
0380
0780
073C
077E
0FFF
0EE7
1EE7
1C0F
1C1E
3C3C
3878
38F0
78EF
70FF
70FF
0000
0000
ENDCHAR

STARTCHAR ¨
ENCODING 172
SWIDTH 110 0
DWIDTH 16 0
BBX 16 32 0 -2
BITMAP
0000
0000
381C
381C
383C
3838
3838
3878
3870
3870
38F0
38E0
39E0
39C0
39DC
03DC
03BC
03BC
07FC
077C
0FDC
0EDC
0FDC
1DFF
1DFF
1C1C
3C1C
381C
381C
001C
0000
0000
ENDCHAR

STARTCHAR ≠
ENCODING 173
SWIDTH 110 0
DWIDTH 16 0
BBX 16 32 0 -2
BITMAP
0000
0000
0000
0000
0000
03C0
03C0
03C0
03C0
0000
0000
0000
0000
0180
0180
0180
0180
0180
0180
03C0
03C0
03C0
03C0
03C0
03C0
03C0
03C0
03C0
03C0
0000
0000
0000
ENDCHAR

STARTCHAR Æ
ENCODING 174
SWIDTH 110 0
DWIDTH 16 0
BBX 16 32 0 -2
BITMAP
0000
0000
0000
0000
0000
0000
0000
01C7
03CF
079E
0F3C
1E78
3CF0
79E0
F3C0
E380
F3C0
79E0
3CF0
1E78
0F3C
079E
03CF
01C7
0000
0000
0000
0000
0000
0000
0000
0000
ENDCHAR

STARTCHAR Ø
ENCODING 175
SWIDTH 110 0
DWIDTH 16 0
BBX 16 32 0 -2
BITMAP
0000
0000
0000
0000
0000
0000
0000
E380
F3C0
79E0
3CF0
1E78
0F3C
079E
03CF
01C7
03CF
079E
0F3C
1E78
3CF0
79E0
F3C0
E380
0000
0000
0000
0000
0000
0000
0000
0000
ENDCHAR

STARTCHAR ∞
ENCODING 176
SWIDTH 110 0
DWIDTH 16 0
BBX 16 32 0 -2
BITMAP
0000
0787
0787
0787
0787
0000
0000
0000
0000
7878
7878
7878
7878
0000
0000
0000
0000
0787
0787
0787
0787
0000
0000
0000
0000
7878
7878
7878
7878
0000
0000
0000
ENDCHAR

STARTCHAR ±
ENCODING 177
SWIDTH 110 0
DWIDTH 16 0
BBX 16 32 0 -2
BITMAP
0000
0F8F
0F8F
0F8F
0F8F
0000
0000
0000
0000
F8F8
F8F8
F8F8
F8F8
0000
0000
0000
0000
0F8F
0F8F
0F8F
0F8F
0000
0000
0000
0000
F8F8
F8F8
F8F8
F8F8
0000
0000
0000
ENDCHAR

STARTCHAR ≤
ENCODING 178
SWIDTH 110 0
DWIDTH 16 0
BBX 16 32 0 -2
BITMAP
0000
07F0
07F0
07F0
07F0
0000
0000
0000
0000
FC1F
FC1F
FC1F
FC1F
C000
0000
0000
0000
07F0
07F0
07F0
07F0
0000
0000
0000
0000
FC1F
FC1F
FC1F
FC1F
C000
0000
0000
ENDCHAR

STARTCHAR ≥
ENCODING 179
SWIDTH 110 0
DWIDTH 16 0
BBX 16 32 0 -2
BITMAP
0E00
0E00
0E00
0E00
0E00
0E00
0E00
0E00
0E00
0E00
0E00
0E00
0E00
0E00
0E00
0E00
0E00
0E00
0E00
0E00
0E00
0E00
0E00
0E00
0E00
0E00
0E00
0E00
0E00
0E00
0E00
0E00
ENDCHAR

STARTCHAR ¥
ENCODING 180
SWIDTH 110 0
DWIDTH 16 0
BBX 16 32 0 -2
BITMAP
0E00
0E00
0E00
0E00
0E00
0E00
0E00
0E00
0E00
0E00
0E00
FE00
FE00
FE00
0E00
0E00
FE00
FE00
FE00
0E00
0E00
0E00
0E00
0E00
0E00
0E00
0E00
0E00
0E00
0E00
0E00
0E00
ENDCHAR

STARTCHAR µ
ENCODING 181
SWIDTH 110 0
DWIDTH 16 0
BBX 16 32 0 -2
BITMAP
0E00
0E00
0E00
0E00
0E00
0E00
0E00
0E00
0E00
0E00
0E00
FE00
FE00
FE00
0E00
0E00
FE00
FE00
FE00
0E00
0E00
0E00
0E00
0E00
0E00
0E00
0E00
0E00
0E00
0E00
0E00
0E00
ENDCHAR

STARTCHAR ∂
ENCODING 182
SWIDTH 110 0
DWIDTH 16 0
BBX 16 32 0 -2
BITMAP
0E70
0E70
0E70
0E70
0E70
0E70
0E70
0E70
0E70
0E70
0E70
0E70
0E70
0E70
0E70
0E70
FE70
FE70
FE70
0E70
0E70
0E70
0E70
0E70
0E70
0E70
0E70
0E70
0E70
0E70
0E70
0E70
ENDCHAR

STARTCHAR ∑
ENCODING 183
SWIDTH 110 0
DWIDTH 16 0
BBX 16 32 0 -2
BITMAP
0000
0000
0000
0000
0000
0000
0000
0000
0000
0000
0000
0000
0000
0000
0000
0000
FFF0
FFF0
FFF0
0E70
0E70
0E70
0E70
0E70
0E70
0E70
0E70
0E70
0E70
0E70
0E70
0E70
ENDCHAR

STARTCHAR ∏
ENCODING 184
SWIDTH 110 0
DWIDTH 16 0
BBX 16 32 0 -2
BITMAP
0000
0000
0000
0000
0000
0000
0000
0000
0000
0000
0000
FE00
FE00
FE00
0E00
0E00
FE00
FE00
FE00
0E00
0E00
0E00
0E00
0E00
0E00
0E00
0E00
0E00
0E00
0E00
0E00
0E00
ENDCHAR

STARTCHAR π
ENCODING 185
SWIDTH 110 0
DWIDTH 16 0
BBX 16 32 0 -2
BITMAP
0E70
0E70
0E70
0E70
0E70
0E70
0E70
0E70
0E70
0E70
0E70
FE70
FE70
FE70
0070
0070
FE70
FE70
FE70
0E70
0E70
0E70
0E70
0E70
0E70
0E70
0E70
0E70
0E70
0E70
0E70
0E70
ENDCHAR

STARTCHAR ∫
ENCODING 186
SWIDTH 110 0
DWIDTH 16 0
BBX 16 32 0 -2
BITMAP
0E70
0E70
0E70
0E70
0E70
0E70
0E70
0E70
0E70
0E70
0E70
0E70
0E70
0E70
0E70
0E70
0E70
0E70
0E70
0E70
0E70
0E70
0E70
0E70
0E70
0E70
0E70
0E70
0E70
0E70
0E70
0E70
ENDCHAR

STARTCHAR ª
ENCODING 187
SWIDTH 110 0
DWIDTH 16 0
BBX 16 32 0 -2
BITMAP
0000
0000
0000
0000
0000
0000
0000
0000
0000
0000
0000
FFF0
FFF0
FFF0
0070
0070
FE70
FE70
FE70
0E70
0E70
0E70
0E70
0E70
0E70
0E70
0E70
0E70
0E70
0E70
0E70
0E70
ENDCHAR

STARTCHAR º
ENCODING 188
SWIDTH 110 0
DWIDTH 16 0
BBX 16 32 0 -2
BITMAP
0E70
0E70
0E70
0E70
0E70
0E70
0E70
0E70
0E70
0E70
0E70
FE70
FE70
FE70
0070
0070
FFF0
FFF0
FFF0
0000
0000
0000
0000
0000
0000
0000
0000
0000
0000
0000
0000
0000
ENDCHAR

STARTCHAR Ω
ENCODING 189
SWIDTH 110 0
DWIDTH 16 0
BBX 16 32 0 -2
BITMAP
0E70
0E70
0E70
0E70
0E70
0E70
0E70
0E70
0E70
0E70
0E70
0E70
0E70
0E70
0E70
0E70
FFF0
FFF0
FFF0
0000
0000
0000
0000
0000
0000
0000
0000
0000
0000
0000
0000
0000
ENDCHAR

STARTCHAR æ
ENCODING 190
SWIDTH 110 0
DWIDTH 16 0
BBX 16 32 0 -2
BITMAP
0E00
0E00
0E00
0E00
0E00
0E00
0E00
0E00
0E00
0E00
0E00
FE00
FE00
FE00
0E00
0E00
FE00
FE00
FE00
0000
0000
0000
0000
0000
0000
0000
0000
0000
0000
0000
0000
0000
ENDCHAR

STARTCHAR ø
ENCODING 191
SWIDTH 110 0
DWIDTH 16 0
BBX 16 32 0 -2
BITMAP
0000
0000
0000
0000
0000
0000
0000
0000
0000
0000
0000
0000
0000
0000
0000
0000
FE00
FE00
FE00
0E00
0E00
0E00
0E00
0E00
0E00
0E00
0E00
0E00
0E00
0E00
0E00
0E00
ENDCHAR

STARTCHAR ¿
ENCODING 192
SWIDTH 110 0
DWIDTH 16 0
BBX 16 32 0 -2
BITMAP
0E00
0E00
0E00
0E00
0E00
0E00
0E00
0E00
0E00
0E00
0E00
0E00
0E00
0E00
0E00
0E00
0FFF
0FFF
0FFF
0000
0000
0000
0000
0000
0000
0000
0000
0000
0000
0000
0000
0000
ENDCHAR

STARTCHAR ¡
ENCODING 193
SWIDTH 110 0
DWIDTH 16 0
BBX 16 32 0 -2
BITMAP
0E00
0E00
0E00
0E00
0E00
0E00
0E00
0E00
0E00
0E00
0E00
0E00
0E00
0E00
0E00
0E00
FFFF
FFFF
FFFF
0000
0000
0000
0000
0000
0000
0000
0000
0000
0000
0000
0000
0000
ENDCHAR

STARTCHAR ¬
ENCODING 194
SWIDTH 110 0
DWIDTH 16 0
BBX 16 32 0 -2
BITMAP
0000
0000
0000
0000
0000
0000
0000
0000
0000
0000
0000
0000
0000
0000
0000
0000
FFFF
FFFF
FFFF
0E00
0E00
0E00
0E00
0E00
0E00
0E00
0E00
0E00
0E00
0E00
0E00
0000
ENDCHAR

STARTCHAR √
ENCODING 195
SWIDTH 110 0
DWIDTH 16 0
BBX 16 32 0 -2
BITMAP
0E00
0E00
0E00
0E00
0E00
0E00
0E00
0E00
0E00
0E00
0E00
0E00
0E00
0E00
0E00
0E00
0FFF
0FFF
0FFF
0E00
0E00
0E00
0E00
0E00
0E00
0E00
0E00
0E00
0E00
0E00
0E00
0E00
ENDCHAR

STARTCHAR ƒ
ENCODING 196
SWIDTH 110 0
DWIDTH 16 0
BBX 16 32 0 -2
BITMAP
0000
0000
0000
0000
0000
0000
0000
0000
0000
0000
0000
0000
0000
0000
0000
0000
FFFF
FFFF
FFFF
C000
0000
0000
0000
0000
0000
0000
0000
0000
0000
0000
0000
0000
ENDCHAR

STARTCHAR ≈
ENCODING 197
SWIDTH 110 0
DWIDTH 16 0
BBX 16 32 0 -2
BITMAP
0E00
0E00
0E00
0E00
0E00
0E00
0E00
0E00
0E00
0E00
0E00
0E00
0E00
0E00
0E00
0E00
FFFF
FFFF
FFFF
0E00
0E00
0E00
0E00
0E00
0E00
0E00
0E00
0E00
0E00
0E00
0E00
0E00
ENDCHAR

STARTCHAR ∆
ENCODING 198
SWIDTH 110 0
DWIDTH 16 0
BBX 16 32 0 -2
BITMAP
0E00
0E00
0E00
0E00
0E00
0E00
0E00
0E00
0E00
0E00
0E00
0FFF
0FFF
0FFF
0E00
0E00
0FFF
0FFF
0FFF
0E00
0E00
0E00
0E00
0E00
0E00
0E00
0E00
0E00
0E00
0E00
0E00
0E00
ENDCHAR

STARTCHAR «
ENCODING 199
SWIDTH 110 0
DWIDTH 16 0
BBX 16 32 0 -2
BITMAP
0E70
0E70
0E70
0E70
0E70
0E70
0E70
0E70
0E70
0E70
0E70
0E70
0E70
0E70
0E70
0E70
0E7F
CE7F
CE7F
CE70
0E70
0E70
0E70
0E70
0E70
0E70
0E70
0E70
0E70
0E70
0E70
0E70
ENDCHAR

STARTCHAR »
ENCODING 200
SWIDTH 110 0
DWIDTH 16 0
BBX 16 32 0 -2
BITMAP
0E70
0E70
0E70
0E70
0E70
0E70
0E70
0E70
0E70
0E70
0E70
0E7F
CE7F
CE7F
CE00
0E00
0FFF
CFFF
CFFF
C000
0000
0000
0000
0000
0000
0000
0000
0000
0000
0000
0000
0000
ENDCHAR

STARTCHAR …
ENCODING 201
SWIDTH 110 0
DWIDTH 16 0
BBX 16 32 0 -2
BITMAP
0000
0000
0000
0000
0000
0000
0000
0000
0000
0000
0000
0000
0FFF
0FFF
0FFF
0E00
0E00
0E7F
0E7F
0E7F
0E70
0E70
0E70
0E70
0E70
0E70
0E70
0E70
0E70
0E70
0E70
0E70
ENDCHAR

STARTCHAR  
ENCODING 202
SWIDTH 110 0
DWIDTH 16 0
BBX 16 32 0 -2
BITMAP
0E70
0E70
0E70
0E70
0E70
0E70
0E70
0E70
0E70
0E70
0E70
FE7F
FE7F
FE7F
0000
0000
FFFF
FFFF
FFFF
0000
0000
0000
0000
0000
0000
0000
0000
0000
0000
0000
0000
0000
ENDCHAR

STARTCHAR À
ENCODING 203
SWIDTH 110 0
DWIDTH 16 0
BBX 16 32 0 -2
BITMAP
0000
0000
0000
0000
0000
0000
0000
0000
0000
0000
0000
FFFF
FFFF
FFFF
0000
0000
FE7F
FE7F
FE7F
0E70
0E70
0E70
0E70
0E70
0E70
0E70
0E70
0E70
0E70
0E70
0E70
0E70
ENDCHAR

STARTCHAR Ã
ENCODING 204
SWIDTH 110 0
DWIDTH 16 0
BBX 16 32 0 -2
BITMAP
0E70
0E70
0E70
0E70
0E70
0E70
0E70
0E70
0E70
0E70
0E70
0E7F
0E7F
0E7F
0E00
0E00
0E7F
0E7F
0E7F
0E70
0E70
0E70
0E70
0E70
0E70
0E70
0E70
0E70
0E70
0E70
0E70
0E70
ENDCHAR

STARTCHAR Õ
ENCODING 205
SWIDTH 110 0
DWIDTH 16 0
BBX 16 32 0 -2
BITMAP
0000
0000
0000
0000
0000
0000
0000
0000
0000
0000
0000
FFFF
FFFF
FFFF
0000
0000
FFFF
FFFF
FFFF
0000
0000
0000
0000
0000
0000
0000
0000
0000
0000
0000
0000
0000
ENDCHAR

STARTCHAR Œ
ENCODING 206
SWIDTH 110 0
DWIDTH 16 0
BBX 16 32 0 -2
BITMAP
0E70
0E70
0E70
0E70
0E70
0E70
0E70
0E70
0E70
0E70
0E70
FE7F
FE7F
FE7F
0000
0000
FE7F
FE7F
FE7F
0E70
0E70
0E70
0E70
0E70
0E70
0E70
0E70
0E70
0E70
0E70
0E70
0E70
ENDCHAR

STARTCHAR œ
ENCODING 207
SWIDTH 110 0
DWIDTH 16 0
BBX 16 32 0 -2
BITMAP
0E00
0E00
0E00
0E00
0E00
0E00
0E00
0E00
0E00
0E00
0E00
FFFF
FFFF
FFFF
0000
0000
FFFF
FFFF
FFFF
0000
0000
0000
0000
0000
0000
0000
0000
0000
0000
0000
0000
0000
ENDCHAR

STARTCHAR –
ENCODING 208
SWIDTH 110 0
DWIDTH 16 0
BBX 16 32 0 -2
BITMAP
0E70
0E70
0E70
0E70
0E70
0E70
0E70
0E70
0E70
0E70
0E70
0E70
0E70
0E70
0E70
0E70
FFFF
FFFF
FFFF
0000
0000
0000
0000
0000
0000
0000
0000
0000
0000
0000
0000
0000
ENDCHAR

STARTCHAR —
ENCODING 209
SWIDTH 110 0
DWIDTH 16 0
BBX 16 32 0 -2
BITMAP
0000
0000
0000
0000
0000
0000
0000
0000
0000
0000
0000
FFFF
FFFF
FFFF
0000
0000
FFFF
FFFF
FFFF
0E00
0E00
0E00
0E00
0E00
0E00
0E00
0E00
0E00
0E00
0E00
0E00
0E00
ENDCHAR

STARTCHAR “
ENCODING 210
SWIDTH 110 0
DWIDTH 16 0
BBX 16 32 0 -2
BITMAP
0000
0000
0000
0000
0000
0000
0000
0000
0000
0000
0000
0000
0000
0000
0000
0000
FFFF
FFFF
FFFF
0E70
0E70
0E70
0E70
0E70
0E70
0E70
0E70
0E70
0E70
0E70
0E70
0E70
ENDCHAR

STARTCHAR ”
ENCODING 211
SWIDTH 110 0
DWIDTH 16 0
BBX 16 32 0 -2
BITMAP
0E70
0E70
0E70
0E70
0E70
0E70
0E70
0E70
0E70
0E70
0E70
0E70
0E70
0E70
0E70
0E70
0FFF
0FFF
0FFF
0000
0000
0000
0000
0000
0000
0000
0000
0000
0000
0000
0000
0000
ENDCHAR

STARTCHAR ‘
ENCODING 212
SWIDTH 110 0
DWIDTH 16 0
BBX 16 32 0 -2
BITMAP
0E00
0E00
0E00
0E00
0E00
0E00
0E00
0E00
0E00
0E00
0E00
0FFF
0FFF
0FFF
0E00
0E00
0FFF
0FFF
0FFF
0000
0000
0000
0000
0000
0000
0000
0000
0000
0000
0000
0000
0000
ENDCHAR

STARTCHAR ’
ENCODING 213
SWIDTH 110 0
DWIDTH 16 0
BBX 16 32 0 -2
BITMAP
0000
0000
0000
0000
0000
0000
0000
0000
0000
0000
0000
0FFF
0FFF
0FFF
0E00
0E00
0FFF
0FFF
0FFF
0E00
0E00
0E00
0E00
0E00
0E00
0E00
0E00
0E00
0E00
0E00
0E00
0E00
ENDCHAR

STARTCHAR ÷
ENCODING 214
SWIDTH 110 0
DWIDTH 16 0
BBX 16 32 0 -2
BITMAP
0000
0000
0000
0000
0000
0000
0000
0000
0000
0000
0000
0000
0000
0000
0000
0000
0FFF
0FFF
0FFF
0E70
0E70
0E70
0E70
0E70
0E70
0E70
0E70
0E70
0E70
0E70
0E70
0E70
ENDCHAR

STARTCHAR ◊
ENCODING 215
SWIDTH 110 0
DWIDTH 16 0
BBX 16 32 0 -2
BITMAP
0E70
0E70
0E70
0E70
0E70
0E70
0E70
0E70
0E70
0E70
0E70
0E70
0E70
0E70
0E70
0E70
FFFF
FFFF
FFFF
0E70
0E70
0E70
0E70
0E70
0E70
0E70
0E70
0E70
0E70
0E70
0E70
0E70
ENDCHAR

STARTCHAR ÿ
ENCODING 216
SWIDTH 110 0
DWIDTH 16 0
BBX 16 32 0 -2
BITMAP
0E00
0E00
0E00
0E00
0E00
0E00
0E00
0E00
0E00
0E00
0E00
FFFF
FFFF
FFFF
0E00
0E00
FFFF
FFFF
FFFF
0E00
0E00
0E00
0E00
0E00
0E00
0E00
0E00
0E00
0E00
0E00
0E00
0E00
ENDCHAR

STARTCHAR Ÿ
ENCODING 217
SWIDTH 110 0
DWIDTH 16 0
BBX 16 32 0 -2
BITMAP
0E00
0E00
0E00
0E00
0E00
0E00
0E00
0E00
0E00
0E00
0E00
0E00
0E00
0E00
0E00
0E00
FE00
FE00
FE00
0000
0000
0000
0000
0000
0000
0000
0000
0000
0000
0000
0000
0000
ENDCHAR

STARTCHAR ⁄
ENCODING 218
SWIDTH 110 0
DWIDTH 16 0
BBX 16 32 0 -2
BITMAP
0000
0000
0000
0000
0000
0000
0000
0000
0000
0000
0000
0000
0000
0000
0000
0000
0FFF
0FFF
0FFF
0E00
0E00
0E00
0E00
0E00
0E00
0E00
0E00
0E00
0E00
0E00
0E00
0E00
ENDCHAR

STARTCHAR €
ENCODING 219
SWIDTH 110 0
DWIDTH 16 0
BBX 16 32 0 -2
BITMAP
FFFF
FFFF
FFFF
FFFF
FFFF
FFFF
FFFF
FFFF
FFFF
FFFF
FFFF
FFFF
FFFF
FFFF
FFFF
FFFF
FFFF
FFFF
FFFF
FFFF
FFFF
FFFF
FFFF
FFFF
FFFF
FFFF
FFFF
FFFF
FFFF
FFFF
FFFF
FFFF
ENDCHAR

STARTCHAR ‹
ENCODING 220
SWIDTH 110 0
DWIDTH 16 0
BBX 16 32 0 -2
BITMAP
0000
0000
0000
0000
0000
0000
0000
0000
0000
0000
0000
0000
0000
0000
0000
FFFF
FFFF
FFFF
FFFF
FFFF
FFFF
FFFF
FFFF
FFFF
FFFF
FFFF
FFFF
FFFF
FFFF
FFFF
FFFF
FFFF
ENDCHAR

STARTCHAR ›
ENCODING 221
SWIDTH 110 0
DWIDTH 16 0
BBX 16 32 0 -2
BITMAP
FF80
FF80
FF80
FF80
FF80
FF80
FF80
FF80
FF80
FF80
FF80
FF80
FF80
FF80
FF80
FF80
FF80
FF80
FF80
FF80
FF80
FF80
FF80
FF80
FF80
FF80
FF80
FF80
FF80
FF80
FF80
FF80
ENDCHAR

STARTCHAR ﬁ
ENCODING 222
SWIDTH 110 0
DWIDTH 16 0
BBX 16 32 0 -2
BITMAP
00FF
00FF
00FF
00FF
00FF
00FF
00FF
00FF
00FF
00FF
00FF
00FF
00FF
00FF
00FF
00FF
00FF
00FF
00FF
00FF
00FF
00FF
00FF
00FF
00FF
00FF
00FF
00FF
00FF
00FF
00FF
00FF
ENDCHAR

STARTCHAR ﬂ
ENCODING 223
SWIDTH 110 0
DWIDTH 16 0
BBX 16 32 0 -2
BITMAP
FFFF
FFFF
FFFF
FFFF
FFFF
FFFF
FFFF
FFFF
FFFF
FFFF
FFFF
FFFF
FFFF
FFFF
FFFF
FFFF
0000
0000
0000
0000
0000
0000
0000
0000
0000
0000
0000
0000
0000
0000
0000
0000
ENDCHAR

STARTCHAR ‡
ENCODING 224
SWIDTH 110 0
DWIDTH 16 0
BBX 16 32 0 -2
BITMAP
0000
0000
0000
0000
0000
0000
0000
0000
0000
0000
03D8
0FF8
1E78
1C38
3838
3838
3838
3838
3838
3838
3838
3838
3838
3838
1C38
1E78
0FFF
03DF
0000
0000
0000
0000
ENDCHAR

STARTCHAR ·
ENCODING 225
SWIDTH 110 0
DWIDTH 16 0
BBX 16 32 0 -2
BITMAP
0000
0000
01E0
07F8
0F38
1E1C
1C1C
3C1C
381C
381C
3838
3878
3BF0
3BE8
383C
381C
380E
380E
380E
380E
380E
380E
380E
3C1C
3F3C
37F8
39E0
3800
3800
3800
3800
0000
ENDCHAR

STARTCHAR ‚
ENCODING 226
SWIDTH 110 0
DWIDTH 16 0
BBX 16 32 0 -2
BITMAP
0000
0000
3FFF
3FFF
1C07
1C07
1C03
1C03
1C03
1C03
1C00
1C00
1C00
1C00
1C00
1C00
1C00
1C00
1C00
1C00
1C00
1C00
1C00
1C00
1C00
1C00
3F00
3F00
0000
0000
0000
0000
ENDCHAR

STARTCHAR „
ENCODING 227
SWIDTH 110 0
DWIDTH 16 0
BBX 16 32 0 -2
BITMAP
0000
0000
0000
0000
0000
0000
0000
0000
0000
0000
1FFF
3FFF
3FFE
7770
6770
0770
0770
0770
0770
0770
0770
0670
0E70
0E73
1E73
3C7F
3C3E
3800
0000
0000
0000
0000
ENDCHAR

STARTCHAR ‰
ENCODING 228
SWIDTH 110 0
DWIDTH 16 0
BBX 16 32 0 -2
BITMAP
0000
0000
7FFF
7FFF
3803
3E03
1E03
0F03
0F83
0780
03C0
03E0
01E0
00F0
00F0
0060
01E0
01C0
0380
0780
0703
0E03
1E03
1C03
3BFF
7FFF
7FFF
0000
0000
0000
0000
0000
ENDCHAR

STARTCHAR Â
ENCODING 229
SWIDTH 110 0
DWIDTH 16 0
BBX 16 32 0 -2
BITMAP
0000
0000
0000
0000
0000
0000
0000
0000
0000
0000
03FF
0FFF
1E7F
1C38
381C
381C
381C
381C
381C
381C
381C
381C
381C
1C38
1E78
0FF0
03C0
0000
0000
0000
0000
0000
ENDCHAR

STARTCHAR Ê
ENCODING 230
SWIDTH 110 0
DWIDTH 16 0
BBX 16 32 0 -2
BITMAP
0000
0000
0000
0000
0000
0000
0000
0000
0000
0000
3838
3838
3838
3838
3838
3838
3838
3838
3838
3838
3838
3838
3838
3838
3C3C
3E7F
3FEF
37E0
F000
F000
E000
0000
ENDCHAR

STARTCHAR Á
ENCODING 231
SWIDTH 110 0
DWIDTH 16 0
BBX 16 32 0 -2
BITMAP
0000
0000
0000
0000
0000
0000
0000
0000
0000
0000
1E1E
3F7E
337E
33E0
03C0
0380
0380
0380
0380
0380
0380
0380
0380
0380
0380
0380
0380
0000
0000
0000
0000
0000
ENDCHAR

STARTCHAR Ë
ENCODING 232
SWIDTH 110 0
DWIDTH 16 0
BBX 16 32 0 -2
BITMAP
0000
0000
07F0
07F0
01C0
01C0
03E0
0FF8
1DBC
3DDE
39CE
79CF
71C7
71C7
71C7
71C7
71C7
71C7
79CF
39CE
3DDE
1DFC
0FB8
03E0
01C0
01C0
07F0
07F0
0000
0000
0000
0000
ENDCHAR

STARTCHAR È
ENCODING 233
SWIDTH 110 0
DWIDTH 16 0
BBX 16 32 0 -2
BITMAP
0000
0000
03E0
0FF8
1E3C
3C1E
380E
780F
7007
7007
7007
7007
7007
7FFF
7FFF
7FFF
7007
7007
7007
7007
7007
7007
780F
380E
3C1E
1E3C
0FF8
03E0
0000
0000
0000
0000
ENDCHAR

STARTCHAR Í
ENCODING 234
SWIDTH 110 0
DWIDTH 16 0
BBX 16 32 0 -2
BITMAP
0000
0000
03F0
0FFC
1E1E
3C0F
3807
7807
7003
7003
7003
7003
7003
7003
7807
3807
3C0F
1E1E
0FBC
07B8
03B8
33B9
33B9
33B9
3FBF
3FBF
3FBF
0000
0000
0000
0000
0000
ENDCHAR

STARTCHAR Î
ENCODING 235
SWIDTH 110 0
DWIDTH 16 0
BBX 16 32 0 -2
BITMAP
0000
0780
1FE0
1CF0
3878
383C
381C
3C0C
1E00
0F80
07E0
01F0
0278
0FFC
1F3C
1C1E
3C0E
380E
380E
380E
380E
380E
380E
3C1E
1C1C
1E3C
0FF8
03E0
0000
0000
0000
0000
ENDCHAR

STARTCHAR Ï
ENCODING 236
SWIDTH 110 0
DWIDTH 16 0
BBX 16 32 0 -2
BITMAP
0000
0000
0000
0000
0000
0000
0000
0000
0000
1E3C
7F7F
73E7
E1C3
E1C3
E1C3
E1C3
E1C3
E1C3
E1C3
E1C3
73E7
7F7F
1E3C
0000
0000
0000
0000
0000
0000
0000
0000
0000
ENDCHAR

STARTCHAR Ì
ENCODING 237
SWIDTH 110 0
DWIDTH 16 0
BBX 16 32 0 -2
BITMAP
0000
0000
0038
0038
0038
0038
0038
0078
0070
0070
03F0
0FF8
1E7C
3CFE
38EE
78EF
70E7
71E7
71C7
71C7
71C7
71C7
73CF
3B8E
3B9E
1FBC
0FF8
07E0
0700
0700
0700
0700
ENDCHAR

STARTCHAR Ó
ENCODING 238
SWIDTH 110 0
DWIDTH 16 0
BBX 16 32 0 -2
BITMAP
0000
0000
03FE
0FFE
1F00
3C00
3800
7800
7000
7000
7000
7000
7000
7FFF
7FFF
7000
7000
7000
7000
7000
7800
3800
3C00
1F00
0FFF
03FF
0000
0000
0000
0000
0000
0000
ENDCHAR

STARTCHAR Ô
ENCODING 239
SWIDTH 110 0
DWIDTH 16 0
BBX 16 32 0 -2
BITMAP
0000
0000
0000
0000
0000
0000
0000
0000
0000
03F0
0FFC
1FFE
1E1E
3C0F
3807
3807
3807
3807
3807
3807
3807
3807
3807
3807
3807
3807
3807
0000
0000
0000
0000
0000
ENDCHAR

STARTCHAR 
ENCODING 240
SWIDTH 110 0
DWIDTH 16 0
BBX 16 32 0 -2
BITMAP
0000
0000
0000
0000
0000
0000
0000
0000
7FFE
7FFE
7FFE
0000
0000
0000
0000
7FFE
7FFE
7FFE
0000
0000
0000
0000
7FFE
7FFE
7FFE
0000
0000
0000
0000
0000
0000
0000
ENDCHAR

STARTCHAR Ò
ENCODING 241
SWIDTH 110 0
DWIDTH 16 0
BBX 16 32 0 -2
BITMAP
0000
0000
0000
01C0
01C0
01C0
01C0
01C0
01C0
01C0
01C0
7FFF
7FFF
7FFF
01C0
01C0
01C0
01C0
01C0
01C0
01C0
0000
0000
7FFF
7FFF
7FFF
0000
0000
0000
0000
0000
0000
ENDCHAR

STARTCHAR Ú
ENCODING 242
SWIDTH 110 0
DWIDTH 16 0
BBX 16 32 0 -2
BITMAP
0000
0000
0000
0000
7000
7C00
7F00
1FC0
07F0
01FC
007F
001F
007F
01FC
07F0
1FC0
7F00
7C00
7000
0000
0000
0000
0000
7FFF
7FFF
7FFF
0000
0000
0000
0000
0000
0000
ENDCHAR

STARTCHAR Û
ENCODING 243
SWIDTH 110 0
DWIDTH 16 0
BBX 16 32 0 -2
BITMAP
0000
0000
0000
0000
0007
001F
007F
01FC
07F0
1FC0
7F00
7C00
7F00
1FC0
07F0
01FC
007F
001F
0007
0000
0000
0000
0000
7FFF
7FFF
7FFF
0000
0000
0000
0000
0000
0000
ENDCHAR

STARTCHAR Ù
ENCODING 244
SWIDTH 110 0
DWIDTH 16 0
BBX 16 32 0 -2
BITMAP
0000
003E
00FF
01E7
01CF
03CF
038F
0387
0380
0380
0380
0380
0380
0380
0380
0380
0380
0380
0380
0380
0380
0380
0380
0380
0380
0380
0380
0380
0380
0380
0380
0380
ENDCHAR

STARTCHAR ı
ENCODING 245
SWIDTH 110 0
DWIDTH 16 0
BBX 16 32 0 -2
BITMAP
01C0
01C0
01C0
01C0
01C0
01C0
01C0
01C0
01C0
01C0
01C0
01C0
01C0
01C0
01C0
01C0
01C0
01C0
01C0
01C0
01C0
01C0
01C0
71C0
F9C0
FB80
FB80
F780
7F00
3E00
0000
0000
ENDCHAR

STARTCHAR ˆ
ENCODING 246
SWIDTH 110 0
DWIDTH 16 0
BBX 16 32 0 -2
BITMAP
0000
0000
0000
0000
0000
0000
01C0
03E0
03E0
01C0
0000
0000
0000
7FFF
7FFF
7FFF
0000
0000
0000
0000
01C0
03E0
03E0
01C0
0000
0000
0000
0000
0000
0000
0000
0000
ENDCHAR

STARTCHAR ˜
ENCODING 247
SWIDTH 110 0
DWIDTH 16 0
BBX 16 32 0 -2
BITMAP
0000
0000
0000
0000
0000
0000
0000
0000
0000
1E03
3F83
3FE7
73FE
60FE
603C
0000
0000
1E03
3F83
3FE7
73FE
60FE
603C
0000
0000
0000
0000
0000
0000
0000
0000
0000
ENDCHAR

STARTCHAR ¯
ENCODING 248
SWIDTH 110 0
DWIDTH 16 0
BBX 16 32 0 -2
BITMAP
0000
03C0
0FF0
1E78
1C38
381C
381C
381C
381C
383C
1C38
1E78
0FF0
03C0
0000
0000
0000
0000
0000
0000
0000
0000
0000
0000
0000
0000
0000
0000
0000
0000
0000
0000
ENDCHAR

STARTCHAR ˘
ENCODING 249
SWIDTH 110 0
DWIDTH 16 0
BBX 16 32 0 -2
BITMAP
0000
0000
0000
0000
0000
0000
0000
0000
0000
0000
0000
0000
0000
0000
0000
0000
0000
3FFC
3FFC
3FFC
3FFC
3FFC
3FFC
3FFC
3FFC
3FFC
3FFC
3FFC
3FFC
3FFC
3FFC
0000
ENDCHAR

STARTCHAR ˙
ENCODING 250
SWIDTH 110 0
DWIDTH 16 0
BBX 16 32 0 -2
BITMAP
0000
0000
0000
0000
0000
0000
0000
0000
0000
0000
0000
0000
0000
0000
0000
0000
0000
0000
0000
0000
0000
0000
0000
0000
0000
0000
0000
3FFC
3FFC
3FFC
0000
0000
ENDCHAR

STARTCHAR ˚
ENCODING 251
SWIDTH 110 0
DWIDTH 16 0
BBX 16 32 0 -2
BITMAP
0000
0000
00FF
00FF
00FF
00E0
00E0
00E0
00E0
00E0
00E0
00E0
00E0
00E0
00E0
00E0
00E0
00E0
00E0
00E0
38E0
3CE0
7EE0
7EE0
EFE0
E7E0
C3E0
01E0
00E0
0060
0000
0000
ENDCHAR

STARTCHAR ¸
ENCODING 252
SWIDTH 110 0
DWIDTH 16 0
BBX 16 32 0 -2
BITMAP
0000
0DF0
0FF8
0FFC
0F3C
0E1C
0E1C
0E1C
0E1C
0E1C
0E1C
0E1C
0E1C
0E1C
0E1C
0000
0000
0000
0000
0000
0000
0000
0000
0000
0000
0000
0000
0000
0000
0000
0000
0000
ENDCHAR

STARTCHAR ˝
ENCODING 253
SWIDTH 110 0
DWIDTH 16 0
BBX 16 32 0 -2
BITMAP
0000
03E0
07F0
0FF8
0E38
0E78
0070
00F0
01E0
03C0
0780
0F78
0FF8
0FF8
0000
0000
0000
0000
0000
0000
0000
0000
0000
0000
0000
0000
0000
0000
0000
0000
0000
0000
ENDCHAR

STARTCHAR ˛
ENCODING 254
SWIDTH 110 0
DWIDTH 16 0
BBX 16 32 0 -2
BITMAP
0000
0000
0000
0000
0000
0000
0000
3FFC
3FFC
3FFC
3FFC
3FFC
3FFC
3FFC
3FFC
3FFC
3FFC
3FFC
3FFC
3FFC
3FFC
3FFC
3FFC
3FFC
0000
0000
0000
0000
0000
0000
0000
0000
ENDCHAR

STARTCHAR ˇ
ENCODING 255
SWIDTH 110 0
DWIDTH 16 0
BBX 16 32 0 -2
BITMAP
0000
0000
0000
0000
0000
0000
0000
0000
0000
0000
0000
0000
0000
0000
0000
0000
0000
0000
0000
0000
0000
0000
0000
0000
0000
0000
0000
0000
0000
0000
0000
0000
ENDCHAR
ENDFONT
